<svg xmlns="http://www.w3.org/2000/svg" xmlns:xlink="http://www.w3.org/1999/xlink" contentStyleType="text/css" data-diagram-type="ACTIVITY" height="982px" preserveAspectRatio="none" style="width:972px;height:982px;background:#FFFFFF;" version="1.1" viewBox="0 0 972 982" width="972px" zoomAndPan="magnify"><?plantuml 1.2026.3beta6?><defs/><g><g class="title" data-source-line="1"><text fill="#000000" font-family="sans-serif" font-size="14" font-weight="700" lengthAdjust="spacing" textLength="261.2354" x="354.8516" y="32.9951">Rust Pathfinder Activity Diagram</text></g><path d="M649.4783,52.2969 L649.4783,60.8633 L629.4783,64.8633 L649.4783,68.8633 L649.4783,77.4297 A0,0 0 0 0 649.4783,77.4297 L742.8035,77.4297 A0,0 0 0 0 742.8035,77.4297 L742.8035,62.2969 L732.8035,52.2969 L649.4783,52.2969 A0,0 0 0 0 649.4783,52.2969" fill="#FFFFFF" style="stroke:#000000;stroke-width:0.5;"/><path d="M732.8035,52.2969 L732.8035,62.2969 L742.8035,62.2969 L732.8035,52.2969" fill="#FFFFFF" style="stroke:#000000;stroke-width:0.5;"/><text fill="#000000" font-family="sans-serif" font-size="13" lengthAdjust="spacing" textLength="72.3252" x="655.4783" y="69.3638">initial node</text><ellipse cx="619.4783" cy="64.8633" fill="#000000" rx="10" ry="10" style="stroke:#222222;stroke-width:1;"/><rect fill="#FFFFFF" height="33.9688" rx="12.5" ry="12.5" style="stroke:#000000;stroke-width:0.5;" width="214.1211" x="512.4177" y="97.4297"/><text fill="#000000" font-family="sans-serif" font-size="12" lengthAdjust="spacing" textLength="194.1211" x="522.4177" y="118.5684">Receive Rust pathfinder request</text><rect fill="#FFFFFF" height="33.9688" rx="12.5" ry="12.5" style="stroke:#000000;stroke-width:0.5;" width="135.5527" x="551.7019" y="151.3984"/><text fill="#000000" font-family="sans-serif" font-size="12" lengthAdjust="spacing" textLength="115.5527" x="561.7019" y="172.5371">Read stdin payload</text><rect fill="#FFFFFF" height="33.9688" rx="12.5" ry="12.5" style="stroke:#000000;stroke-width:0.5;" width="169.3145" x="534.821" y="205.3672"/><text fill="#000000" font-family="sans-serif" font-size="12" lengthAdjust="spacing" textLength="149.3145" x="544.821" y="226.5059">Deserialize request JSON</text><polygon fill="#FFFFFF" points="572.0542,259.3359,666.9023,259.3359,678.9023,271.3359,666.9023,283.3359,572.0542,283.3359,560.0542,271.3359,572.0542,259.3359" style="stroke:#000000;stroke-width:0.5;"/><text fill="#000000" font-family="sans-serif" font-size="11" lengthAdjust="spacing" textLength="94.8481" x="572.0542" y="275.144">Execution mode?</text><text fill="#000000" font-family="sans-serif" font-size="11" lengthAdjust="spacing" textLength="43.3179" x="516.7363" y="268.7417">runtime</text><text fill="#000000" font-family="sans-serif" font-size="11" lengthAdjust="spacing" textLength="25.5288" x="678.9023" y="268.7417">spec</text><rect fill="#000000" height="6" rx="2.5" ry="2.5" style="stroke:#000000;stroke-width:1;" width="734.4873" x="16" y="293.3359"/><rect fill="#FFFFFF" height="33.9688" rx="12.5" ry="12.5" style="stroke:#000000;stroke-width:0.5;" width="40.1445" x="191.2324" y="319.3359"/><text fill="#000000" font-family="sans-serif" font-size="12" lengthAdjust="spacing" textLength="20.1445" x="201.2324" y="340.4746">run</text><rect fill="#FFFFFF" height="33.9688" rx="12.5" ry="12.5" style="stroke:#000000;stroke-width:0.5;" width="175.9707" x="123.3193" y="373.3047"/><text fill="#000000" font-family="sans-serif" font-size="12" lengthAdjust="spacing" textLength="155.9707" x="133.3193" y="394.4434">Build or reuse GraphState</text><path d="M333.1475,438.3945 L333.1475,477.2266 L313.1475,481.2266 L333.1475,485.2266 L333.1475,524.0586 A0,0 0 0 0 333.1475,524.0586 L532.2881,524.0586 A0,0 0 0 0 532.2881,524.0586 L532.2881,448.3945 L522.2881,438.3945 L333.1475,438.3945 A0,0 0 0 0 333.1475,438.3945" fill="#FFFFFF" style="stroke:#000000;stroke-width:0.5;"/><path d="M522.2881,438.3945 L522.2881,448.3945 L532.2881,448.3945 L522.2881,438.3945" fill="#FFFFFF" style="stroke:#000000;stroke-width:0.5;"/><text fill="#000000" font-family="sans-serif" font-size="13" lengthAdjust="spacing" textLength="178.1406" x="339.1475" y="455.4614">selected algorithm options:</text><text fill="#000000" font-family="sans-serif" font-size="13" lengthAdjust="spacing" textLength="19.6016" x="339.1475" y="470.5942">bfs</text><text fill="#000000" font-family="sans-serif" font-size="13" lengthAdjust="spacing" textLength="48.1851" x="339.1475" y="485.7271">dijkstra</text><text fill="#000000" font-family="sans-serif" font-size="13" lengthAdjust="spacing" textLength="33.1475" x="339.1475" y="500.8599">astar</text><text fill="#000000" font-family="sans-serif" font-size="13" lengthAdjust="spacing" textLength="80.6978" x="339.1475" y="515.9927">bidirectional</text><rect fill="#FFFFFF" height="33.9688" rx="12.5" ry="12.5" style="stroke:#000000;stroke-width:0.5;" width="203.6855" x="109.4619" y="464.2422"/><text fill="#000000" font-family="sans-serif" font-size="12" lengthAdjust="spacing" textLength="183.6855" x="119.4619" y="485.3809">Run selected search algorithm</text><polygon fill="#FFFFFF" points="178.5437,550.2109,244.0657,550.2109,256.0657,562.2109,244.0657,574.2109,178.5437,574.2109,166.5437,562.2109,178.5437,550.2109" style="stroke:#000000;stroke-width:0.5;"/><text fill="#000000" font-family="sans-serif" font-size="11" lengthAdjust="spacing" textLength="65.522" x="178.5437" y="566.019">Path found?</text><text fill="#000000" font-family="sans-serif" font-size="11" lengthAdjust="spacing" textLength="19.0083" x="147.5354" y="559.6167">yes</text><text fill="#000000" font-family="sans-serif" font-size="11" lengthAdjust="spacing" textLength="13.7017" x="256.0657" y="559.6167">no</text><rect fill="#FFFFFF" height="33.9688" rx="12.5" ry="12.5" style="stroke:#000000;stroke-width:0.5;" width="136.3789" x="46.8643" y="584.2109"/><text fill="#000000" font-family="sans-serif" font-size="12" lengthAdjust="spacing" textLength="116.3789" x="56.8643" y="605.3496">Build resolved path</text><rect fill="#FFFFFF" height="33.9688" rx="12.5" ry="12.5" style="stroke:#000000;stroke-width:0.5;" width="174.1074" x="28" y="638.1797"/><text fill="#000000" font-family="sans-serif" font-size="12" lengthAdjust="spacing" textLength="154.1074" x="38" y="659.3184">Build PathfinderResponse</text><rect fill="#FFFFFF" height="33.9688" rx="12.5" ry="12.5" style="stroke:#000000;stroke-width:0.5;" width="170.8965" x="222.1074" y="584.2109"/><text fill="#000000" font-family="sans-serif" font-size="12" lengthAdjust="spacing" textLength="150.8965" x="232.1074" y="605.3496">Build not-found response</text><polygon fill="#FFFFFF" points="211.3047,678.1484,223.3047,690.1484,211.3047,702.1484,199.3047,690.1484,211.3047,678.1484" style="stroke:#000000;stroke-width:0.5;"/><rect fill="#FFFFFF" height="33.9688" rx="12.5" ry="12.5" style="stroke:#000000;stroke-width:0.5;" width="72.916" x="611.9297" y="427.2734"/><text fill="#000000" font-family="sans-serif" font-size="12" lengthAdjust="spacing" textLength="52.916" x="621.9297" y="448.4121">compare</text><rect fill="#FFFFFF" height="33.9688" rx="12.5" ry="12.5" style="stroke:#000000;stroke-width:0.5;" width="176.1992" x="560.2881" y="496.2422"/><text fill="#000000" font-family="sans-serif" font-size="12" lengthAdjust="spacing" textLength="156.1992" x="570.2881" y="517.3809">Run remaining algorithms</text><rect fill="#FFFFFF" height="33.9688" rx="12.5" ry="12.5" style="stroke:#000000;stroke-width:0.5;" width="166.8066" x="564.9844" y="556.3633"/><text fill="#000000" font-family="sans-serif" font-size="12" lengthAdjust="spacing" textLength="146.8066" x="574.9844" y="577.502">Build CompareResponse</text><rect fill="#000000" height="6" rx="2.5" ry="2.5" style="stroke:#000000;stroke-width:1;" width="734.4873" x="16" y="722.1484"/><rect fill="#FFFFFF" height="33.9688" rx="12.5" ry="12.5" style="stroke:#000000;stroke-width:0.5;" width="139.2207" x="307.6333" y="748.1484"/><text fill="#000000" font-family="sans-serif" font-size="12" lengthAdjust="spacing" textLength="119.2207" x="317.6333" y="769.2871">Build runtime result</text><rect fill="#FFFFFF" height="33.9688" rx="12.5" ry="12.5" style="stroke:#000000;stroke-width:0.5;" width="182.4512" x="770.4873" y="293.3359"/><text fill="#000000" font-family="sans-serif" font-size="12" lengthAdjust="spacing" textLength="162.4512" x="780.4873" y="314.4746">Build EngineSpecResponse</text><polygon fill="#FFFFFF" points="619.4783,788.1172,631.4783,800.1172,619.4783,812.1172,607.4783,800.1172,619.4783,788.1172" style="stroke:#000000;stroke-width:0.5;"/><rect fill="#FFFFFF" height="33.9688" rx="12.5" ry="12.5" style="stroke:#000000;stroke-width:0.5;" width="147.7578" x="545.5994" y="832.1172"/><text fill="#000000" font-family="sans-serif" font-size="12" lengthAdjust="spacing" textLength="127.7578" x="555.5994" y="853.2559">Serialize JSON output</text><path d="M713.697,890.5039 L713.697,899.0703 L693.697,903.0703 L713.697,907.0703 L713.697,915.6367 A0,0 0 0 0 713.697,915.6367 L814.7537,915.6367 A0,0 0 0 0 814.7537,915.6367 L814.7537,900.5039 L804.7537,890.5039 L713.697,890.5039 A0,0 0 0 0 713.697,890.5039" fill="#FFFFFF" style="stroke:#000000;stroke-width:0.5;"/><path d="M804.7537,890.5039 L804.7537,900.5039 L814.7537,900.5039 L804.7537,890.5039" fill="#FFFFFF" style="stroke:#000000;stroke-width:0.5;"/><text fill="#000000" font-family="sans-serif" font-size="13" lengthAdjust="spacing" textLength="80.0566" x="719.697" y="907.5708">activity final</text><rect fill="#FFFFFF" height="33.9688" rx="12.5" ry="12.5" style="stroke:#000000;stroke-width:0.5;" width="148.4375" x="545.2595" y="886.0859"/><text fill="#000000" font-family="sans-serif" font-size="12" lengthAdjust="spacing" textLength="128.4375" x="555.2595" y="907.2246">Print stdout response</text><ellipse cx="619.4783" cy="951.0547" fill="none" rx="11" ry="11" style="stroke:#222222;stroke-width:1;"/><ellipse cx="619.4783" cy="951.0547" fill="#222222" rx="6" ry="6" style="stroke:#222222;stroke-width:1;"/><line style="stroke:#181818;stroke-width:1;" x1="619.4783" x2="619.4783" y1="74.8633" y2="97.4297"/><polygon fill="#181818" points="615.4783,87.4297,619.4783,97.4297,623.4783,87.4297,619.4783,91.4297" style="stroke:#181818;stroke-width:1;"/><line style="stroke:#181818;stroke-width:1;" x1="619.4783" x2="619.4783" y1="131.3984" y2="151.3984"/><polygon fill="#181818" points="615.4783,141.3984,619.4783,151.3984,623.4783,141.3984,619.4783,145.3984" style="stroke:#181818;stroke-width:1;"/><line style="stroke:#181818;stroke-width:1;" x1="619.4783" x2="619.4783" y1="185.3672" y2="205.3672"/><polygon fill="#181818" points="615.4783,195.3672,619.4783,205.3672,623.4783,195.3672,619.4783,199.3672" style="stroke:#181818;stroke-width:1;"/><line style="stroke:#181818;stroke-width:1;" x1="211.3047" x2="211.3047" y1="353.3047" y2="373.3047"/><polygon fill="#181818" points="207.3047,363.3047,211.3047,373.3047,215.3047,363.3047,211.3047,367.3047" style="stroke:#181818;stroke-width:1;"/><line style="stroke:#181818;stroke-width:1;" x1="211.3047" x2="211.3047" y1="407.2734" y2="464.2422"/><polygon fill="#181818" points="207.3047,454.2422,211.3047,464.2422,215.3047,454.2422,211.3047,458.2422" style="stroke:#181818;stroke-width:1;"/><line style="stroke:#181818;stroke-width:1;" x1="115.0537" x2="115.0537" y1="618.1797" y2="638.1797"/><polygon fill="#181818" points="111.0537,628.1797,115.0537,638.1797,119.0537,628.1797,115.0537,632.1797" style="stroke:#181818;stroke-width:1;"/><line style="stroke:#181818;stroke-width:1;" x1="166.5437" x2="115.0537" y1="562.2109" y2="562.2109"/><line style="stroke:#181818;stroke-width:1;" x1="115.0537" x2="115.0537" y1="562.2109" y2="584.2109"/><polygon fill="#181818" points="111.0537,574.2109,115.0537,584.2109,119.0537,574.2109,115.0537,578.2109" style="stroke:#181818;stroke-width:1;"/><line style="stroke:#181818;stroke-width:1;" x1="256.0657" x2="307.5557" y1="562.2109" y2="562.2109"/><line style="stroke:#181818;stroke-width:1;" x1="307.5557" x2="307.5557" y1="562.2109" y2="584.2109"/><polygon fill="#181818" points="303.5557,574.2109,307.5557,584.2109,311.5557,574.2109,307.5557,578.2109" style="stroke:#181818;stroke-width:1;"/><line style="stroke:#181818;stroke-width:1;" x1="115.0537" x2="115.0537" y1="672.1484" y2="690.1484"/><line style="stroke:#181818;stroke-width:1;" x1="115.0537" x2="199.3047" y1="690.1484" y2="690.1484"/><polygon fill="#181818" points="189.3047,686.1484,199.3047,690.1484,189.3047,694.1484,193.3047,690.1484" style="stroke:#181818;stroke-width:1;"/><line style="stroke:#181818;stroke-width:1;" x1="307.5557" x2="307.5557" y1="618.1797" y2="690.1484"/><line style="stroke:#181818;stroke-width:1;" x1="307.5557" x2="223.3047" y1="690.1484" y2="690.1484"/><polygon fill="#181818" points="233.3047,686.1484,223.3047,690.1484,233.3047,694.1484,229.3047,690.1484" style="stroke:#181818;stroke-width:1;"/><line style="stroke:#181818;stroke-width:1;" x1="211.3047" x2="211.3047" y1="498.2109" y2="550.2109"/><polygon fill="#181818" points="207.3047,540.2109,211.3047,550.2109,215.3047,540.2109,211.3047,544.2109" style="stroke:#181818;stroke-width:1;"/><line style="stroke:#181818;stroke-width:1;" x1="648.3877" x2="648.3877" y1="461.2422" y2="496.2422"/><polygon fill="#181818" points="644.3877,486.2422,648.3877,496.2422,652.3877,486.2422,648.3877,490.2422" style="stroke:#181818;stroke-width:1;"/><line style="stroke:#181818;stroke-width:1;" x1="648.3877" x2="648.3877" y1="530.2109" y2="556.3633"/><polygon fill="#181818" points="644.3877,546.3633,648.3877,556.3633,652.3877,546.3633,648.3877,550.3633" style="stroke:#181818;stroke-width:1;"/><line style="stroke:#181818;stroke-width:1;" x1="211.3047" x2="211.3047" y1="299.3359" y2="319.3359"/><polygon fill="#181818" points="207.3047,309.3359,211.3047,319.3359,215.3047,309.3359,211.3047,313.3359" style="stroke:#181818;stroke-width:1;"/><line style="stroke:#181818;stroke-width:1;" x1="648.3877" x2="648.3877" y1="299.3359" y2="427.2734"/><polygon fill="#181818" points="644.3877,417.2734,648.3877,427.2734,652.3877,417.2734,648.3877,421.2734" style="stroke:#181818;stroke-width:1;"/><line style="stroke:#181818;stroke-width:1;" x1="211.3047" x2="211.3047" y1="702.1484" y2="722.1484"/><polygon fill="#181818" points="207.3047,712.1484,211.3047,722.1484,215.3047,712.1484,211.3047,716.1484" style="stroke:#181818;stroke-width:1;"/><line style="stroke:#181818;stroke-width:1;" x1="648.3877" x2="648.3877" y1="590.332" y2="722.1484"/><polygon fill="#181818" points="644.3877,712.1484,648.3877,722.1484,652.3877,712.1484,648.3877,716.1484" style="stroke:#181818;stroke-width:1;"/><line style="stroke:#181818;stroke-width:1;" x1="377.2437" x2="377.2437" y1="728.1484" y2="748.1484"/><polygon fill="#181818" points="373.2437,738.1484,377.2437,748.1484,381.2437,738.1484,377.2437,742.1484" style="stroke:#181818;stroke-width:1;"/><line style="stroke:#181818;stroke-width:1;" x1="560.0542" x2="377.2437" y1="271.3359" y2="271.3359"/><line style="stroke:#181818;stroke-width:1;" x1="377.2437" x2="377.2437" y1="271.3359" y2="293.3359"/><polygon fill="#181818" points="373.2437,283.3359,377.2437,293.3359,381.2437,283.3359,377.2437,287.3359" style="stroke:#181818;stroke-width:1;"/><line style="stroke:#181818;stroke-width:1;" x1="678.9023" x2="861.7129" y1="271.3359" y2="271.3359"/><line style="stroke:#181818;stroke-width:1;" x1="861.7129" x2="861.7129" y1="271.3359" y2="293.3359"/><polygon fill="#181818" points="857.7129,283.3359,861.7129,293.3359,865.7129,283.3359,861.7129,287.3359" style="stroke:#181818;stroke-width:1;"/><line style="stroke:#181818;stroke-width:1;" x1="377.2437" x2="377.2437" y1="782.1172" y2="800.1172"/><line style="stroke:#181818;stroke-width:1;" x1="377.2437" x2="607.4783" y1="800.1172" y2="800.1172"/><polygon fill="#181818" points="597.4783,796.1172,607.4783,800.1172,597.4783,804.1172,601.4783,800.1172" style="stroke:#181818;stroke-width:1;"/><line style="stroke:#181818;stroke-width:1;" x1="861.7129" x2="861.7129" y1="327.3047" y2="800.1172"/><line style="stroke:#181818;stroke-width:1;" x1="861.7129" x2="631.4783" y1="800.1172" y2="800.1172"/><polygon fill="#181818" points="641.4783,796.1172,631.4783,800.1172,641.4783,804.1172,637.4783,800.1172" style="stroke:#181818;stroke-width:1;"/><line style="stroke:#181818;stroke-width:1;" x1="619.4783" x2="619.4783" y1="239.3359" y2="259.3359"/><polygon fill="#181818" points="615.4783,249.3359,619.4783,259.3359,623.4783,249.3359,619.4783,253.3359" style="stroke:#181818;stroke-width:1;"/><line style="stroke:#181818;stroke-width:1;" x1="619.4783" x2="619.4783" y1="812.1172" y2="832.1172"/><polygon fill="#181818" points="615.4783,822.1172,619.4783,832.1172,623.4783,822.1172,619.4783,826.1172" style="stroke:#181818;stroke-width:1;"/><line style="stroke:#181818;stroke-width:1;" x1="619.4783" x2="619.4783" y1="866.0859" y2="886.0859"/><polygon fill="#181818" points="615.4783,876.0859,619.4783,886.0859,623.4783,876.0859,619.4783,880.0859" style="stroke:#181818;stroke-width:1;"/><line style="stroke:#181818;stroke-width:1;" x1="619.4783" x2="619.4783" y1="920.0547" y2="940.0547"/><polygon fill="#181818" points="615.4783,930.0547,619.4783,940.0547,623.4783,930.0547,619.4783,934.0547" style="stroke:#181818;stroke-width:1;"/><?plantuml-src fLF1ajCm3BtxAtHi3_n0Ss3eRc660-oqN-36IYBgsC6MknHc_nqvQHEtivmu9TQJdvwUP2Qs2FiK6LuqTmqvWm4-rKnduWiyasw3xfMA9tA3bbyuwlhK1f-SUVBM1tZjYB70OwUDVoNNGgDjB163ZKwMFtl7qzMZ5QuYGT_A_b40stVhIDm7aLWI03nIGXRUUsV-HNA3t-4wi0uFPBlRzLjWg-yklHKzEC_ut_hVnF0iGuriWTgE5JbYqbOA65Jep5X9gSqUQwJpTOR3CiE0FnD6hdA6DX3Pa1FyOhqs4dp6Y47uw3VUKk7huVktIYbgOBNxXNLYyWvwgVTn3ToXWrL8Zgd7jMXkVCZI0JOIhAQ_RI9hmEVYAI9y2Nhen4_6AxvF3Y9Qh1b54UfGTw1jwmDnrqyvHSVvE6VFQU27h2jkHlpOnF5hwCSfSj3ZGMVp9fWC1I6G2zgEaSMvVCgjvhsNRcHGSviNZEiHdtiA6BqzYuxiS7MFBGzdZt4GQTTsKTOVLiu_K4dr3sEvJ5gcEqFDrLZGhIOtcLRxNbQhj31WBsX-OhChyMu2JzELKaxkUnoPMdgQXfbboBEirAGt3bYlbwITQydXGO8BswHqSvWNA2yE-CH3olls4iXnNZY953qMavqVkjWcSrbc4jaFVm40?></g></svg>