<svg xmlns="http://www.w3.org/2000/svg" xmlns:xlink="http://www.w3.org/1999/xlink" contentStyleType="text/css" data-diagram-type="DESCRIPTION" height="132px" preserveAspectRatio="none" style="width:1424px;height:132px;background:#FFFFFF;" version="1.1" viewBox="0 0 1424 132" width="1424px" zoomAndPan="magnify"><?plantuml 1.2026.3beta6?><defs/><g><g class="title" data-source-line="1"><text fill="#000000" font-family="sans-serif" font-size="14" font-weight="700" lengthAdjust="spacing" textLength="410.3271" x="503.5844" y="22.9951">Dataset Lifecycle from Riot API to Analytical Output</text></g><!--entity Riot--><g class="entity" data-qualified-name="Riot" data-source-line="5" id="ent0002"><ellipse cx="33.1353" cy="51.2969" fill="#F1F1F1" rx="8" ry="8" style="stroke:#181818;stroke-width:0.5;"/><path d="M33.1353,59.2969 L33.1353,86.2969 M20.1353,67.2969 L46.1353,67.2969 M33.1353,86.2969 L20.1353,101.2969 M33.1353,86.2969 L46.1353,101.2969" fill="none" style="stroke:#181818;stroke-width:0.5;"/><text fill="#000000" font-family="sans-serif" font-size="14" lengthAdjust="spacing" textLength="54.2705" x="6" y="115.792">Riot API</text></g><!--entity Collection--><g class="entity" data-qualified-name="Collection" data-source-line="7" id="ent0003"><rect fill="#F1F1F1" height="36.2969" rx="2.5" ry="2.5" style="stroke:#181818;stroke-width:0.5;" width="89.248" x="224.27" y="62.7969"/><text fill="#000000" font-family="sans-serif" font-size="14" lengthAdjust="spacing" textLength="69.248" x="234.27" y="85.792">Collection</text></g><!--entity RawDB--><g class="entity" data-qualified-name="RawDB" data-source-line="8" id="ent0004"><path d="M469.52,68.2969 C469.52,58.2969 506.8159,58.2969 506.8159,58.2969 C506.8159,58.2969 544.1118,58.2969 544.1118,68.2969 L544.1118,93.5938 C544.1118,103.5938 506.8159,103.5938 506.8159,103.5938 C506.8159,103.5938 469.52,103.5938 469.52,93.5938 L469.52,68.2969" fill="#F1F1F1" style="stroke:#181818;stroke-width:0.5;"/><path d="M469.52,68.2969 C469.52,78.2969 506.8159,78.2969 506.8159,78.2969 C506.8159,78.2969 544.1118,78.2969 544.1118,68.2969" fill="none" style="stroke:#181818;stroke-width:0.5;"/><text fill="#000000" font-family="sans-serif" font-size="14" lengthAdjust="spacing" textLength="54.5918" x="479.52" y="95.292">Raw DB</text></g><!--entity RefinedDB--><g class="entity" data-qualified-name="RefinedDB" data-source-line="9" id="ent0005"><path d="M737.11,68.2969 C737.11,58.2969 786.2936,58.2969 786.2936,58.2969 C786.2936,58.2969 835.4772,58.2969 835.4772,68.2969 L835.4772,93.5938 C835.4772,103.5938 786.2936,103.5938 786.2936,103.5938 C786.2936,103.5938 737.11,103.5938 737.11,93.5938 L737.11,68.2969" fill="#F1F1F1" style="stroke:#181818;stroke-width:0.5;"/><path d="M737.11,68.2969 C737.11,78.2969 786.2936,78.2969 786.2936,78.2969 C786.2936,78.2969 835.4772,78.2969 835.4772,68.2969" fill="none" style="stroke:#181818;stroke-width:0.5;"/><text fill="#000000" font-family="sans-serif" font-size="14" lengthAdjust="spacing" textLength="78.3672" x="747.11" y="95.292">Refined DB</text></g><!--entity GraphCache--><g class="entity" data-qualified-name="GraphCache" data-source-line="10" id="ent0006"><path d="M1016.48,68.2969 C1016.48,58.2969 1071.9458,58.2969 1071.9458,58.2969 C1071.9458,58.2969 1127.4116,58.2969 1127.4116,68.2969 L1127.4116,93.5938 C1127.4116,103.5938 1071.9458,103.5938 1071.9458,103.5938 C1071.9458,103.5938 1016.48,103.5938 1016.48,93.5938 L1016.48,68.2969" fill="#F1F1F1" style="stroke:#181818;stroke-width:0.5;"/><path d="M1016.48,68.2969 C1016.48,78.2969 1071.9458,78.2969 1071.9458,78.2969 C1071.9458,78.2969 1127.4116,78.2969 1127.4116,68.2969" fill="none" style="stroke:#181818;stroke-width:0.5;"/><text fill="#000000" font-family="sans-serif" font-size="14" lengthAdjust="spacing" textLength="90.9316" x="1026.48" y="95.292">Graph Cache</text></g><!--entity Result--><g class="entity" data-qualified-name="Result" data-source-line="11" id="ent0007"><rect fill="#F1F1F1" height="36.2969" rx="2.5" ry="2.5" style="stroke:#181818;stroke-width:0.5;" width="137.0859" x="1273.41" y="62.7969"/><text fill="#000000" font-family="sans-serif" font-size="14" lengthAdjust="spacing" textLength="117.0859" x="1283.41" y="85.792">Analytical Result</text></g><!--link Riot to Collection--><g class="link" data-entity-1="ent0002" data-entity-2="ent0003" data-link-type="dependency" data-source-line="13" id="lnk8"><path d="M60.5,80.9469 C100.26,80.9469 170.03,80.9469 218.15,80.9469" fill="none" id="Riot-to-Collection" style="stroke:#181818;stroke-width:1;"/><polygon fill="#181818" points="224.15,80.9469,215.15,76.9469,219.15,80.9469,215.15,84.9469,224.15,80.9469" style="stroke:#181818;stroke-width:1;"/><text fill="#000000" font-family="sans-serif" font-size="13" lengthAdjust="spacing" textLength="102.5845" x="91.27" y="77.0138">collect matches</text></g><!--link Collection to RawDB--><g class="link" data-entity-1="ent0003" data-entity-2="ent0004" data-link-type="dependency" data-source-line="14" id="lnk9"><path d="M313.99,80.9469 C358.8,80.9469 421.41,80.9469 463.28,80.9469" fill="none" id="Collection-to-RawDB" style="stroke:#181818;stroke-width:1;"/><polygon fill="#181818" points="469.28,80.9469,460.28,76.9469,464.28,80.9469,460.28,84.9469,469.28,80.9469" style="stroke:#181818;stroke-width:1;"/><text fill="#000000" font-family="sans-serif" font-size="13" lengthAdjust="spacing" textLength="94.6563" x="344.52" y="77.0138">store raw data</text></g><!--link RawDB to RefinedDB--><g class="link" data-entity-1="ent0004" data-entity-2="ent0005" data-link-type="dependency" data-source-line="15" id="lnk10"><path d="M544.38,80.9469 C593.82,80.9469 676.13,80.9469 730.99,80.9469" fill="none" id="RawDB-to-RefinedDB" style="stroke:#181818;stroke-width:1;"/><polygon fill="#181818" points="736.99,80.9469,727.99,76.9469,731.99,80.9469,727.99,84.9469,736.99,80.9469" style="stroke:#181818;stroke-width:1;"/><text fill="#000000" font-family="sans-serif" font-size="13" lengthAdjust="spacing" textLength="131.8979" x="575.11" y="77.0138">clean and normalize</text></g><!--link RefinedDB to GraphCache--><g class="link" data-entity-1="ent0005" data-entity-2="ent0006" data-link-type="dependency" data-source-line="16" id="lnk11"><path d="M835.73,80.9469 C885.89,80.9469 958.1,80.9469 1010.4,80.9469" fill="none" id="RefinedDB-to-GraphCache" style="stroke:#181818;stroke-width:1;"/><polygon fill="#181818" points="1016.4,80.9469,1007.4,76.9469,1011.4,80.9469,1007.4,84.9469,1016.4,80.9469" style="stroke:#181818;stroke-width:1;"/><text fill="#000000" font-family="sans-serif" font-size="13" lengthAdjust="spacing" textLength="119.1519" x="866.48" y="77.0138">build player graph</text></g><!--link GraphCache to Result--><g class="link" data-entity-1="ent0006" data-entity-2="ent0007" data-link-type="dependency" data-source-line="17" id="lnk12"><path d="M1127.83,80.9469 C1169.94,80.9469 1222.3,80.9469 1267.3,80.9469" fill="none" id="GraphCache-to-Result" style="stroke:#181818;stroke-width:1;"/><polygon fill="#181818" points="1273.3,80.9469,1264.3,76.9469,1268.3,80.9469,1264.3,84.9469,1273.3,80.9469" style="stroke:#181818;stroke-width:1;"/><text fill="#000000" font-family="sans-serif" font-size="13" lengthAdjust="spacing" textLength="84.062" x="1158.41" y="77.0138">run analytics</text></g><?plantuml-src LP1DQiGm38NtEeN8VYxGHM5c0gLGQ9aRQ1mbCIXsi1M6zFJrJwTnTtv-dvwVh5Q5iIUbo8eVTcIpctGp1h_WpNh5yzSxgiUp8zdL6XByt7JT541ur6m5EysAWmrir7e7G4PzmEuvtY75aWMG4N9JUg2xUf4wKFn3mf3Qt5EVb40Fx2zrdXxzfRLuj8w7FxlAVyXRe7N6AvcP2rDqaMsFPh4RnqtqDoyV0SeEfzDhqmzVq5I12sbAYz2OcIrT4nRJDp26j4Gk1VMw0C-sEKkO798RqFcmaDXlXiFFzD4xuVVDoe2hqCu1f-n0uzVmN3sXOSkvTRlu0m00?></g></svg>