<?plantuml 1.2026.2beta3?><svg xmlns="http://www.w3.org/2000/svg" xmlns:xlink="http://www.w3.org/1999/xlink" contentStyleType="text/css" data-diagram-type="DESCRIPTION" height="3764.0625px" preserveAspectRatio="none" style="width:4307px;height:3764px;background:#FFFFFF;" version="1.1" viewBox="0 0 4307 3764" width="4307.8125px" zoomAndPan="magnify"><defs/><g><!--cluster DC--><g class="cluster" data-qualified-name="DC" data-source-line="25" id="ent0004"><rect fill="none" height="3192.1875" rx="11.7188" ry="11.7188" style="stroke:#181818;stroke-width:4.6875;" width="2940.1875" x="739.5" y="544.227"/><text fill="#000000" font-family="sans-serif" font-size="65.625" font-weight="bold" lengthAdjust="spacing" textLength="643.5287" x="1887.8294" y="614.5166">Docker Container</text></g><!--cluster FE--><g class="cluster" data-qualified-name="DC.FE" data-source-line="26" id="ent0005"><rect fill="none" height="904.6875" rx="11.7188" ry="11.7188" style="stroke:#181818;stroke-width:4.6875;" width="1239.75" x="889.5" y="783.2895"/><text fill="#000000" font-family="sans-serif" font-size="65.625" font-weight="bold" lengthAdjust="spacing" textLength="1170.195" x="924.2775" y="853.5791">Frontend Vite Server (React UI)</text></g><!--cluster BE--><g class="cluster" data-qualified-name="DC.BE" data-source-line="31" id="ent0008"><rect fill="none" height="1710.9375" rx="11.7188" ry="11.7188" style="stroke:#181818;stroke-width:4.6875;" width="2623.9219" x="905.7656" y="1875.477"/><text fill="#000000" font-family="sans-serif" font-size="65.625" font-weight="bold" lengthAdjust="spacing" textLength="1637.709" x="1398.872" y="1945.7666">Backend Server (Express API + Python jobs)</text></g><!--entity FE_Analysis--><g class="entity" data-qualified-name="DC.FE.FE_Analysis" data-source-line="27" id="ent0006"><ellipse cx="1509.3672" cy="1481.7161" fill="#F1F1F1" rx="422.9922" ry="95.8484" style="stroke:#181818;stroke-width:2.3438;"/><text fill="#000000" font-family="sans-serif" font-size="65.625" lengthAdjust="spacing" textLength="723.1888" x="1147.7728" y="1503.5056">Use Match Analysis UI</text></g><!--entity FE_Graph--><g class="entity" data-qualified-name="DC.FE.FE_Graph" data-source-line="28" id="ent0007"><ellipse cx="1509.3688" cy="1148.9039" fill="#F1F1F1" rx="302.7595" ry="71.8019" style="stroke:#181818;stroke-width:2.3438;"/><text fill="#000000" font-family="sans-serif" font-size="65.625" lengthAdjust="spacing" textLength="433.0032" x="1292.8672" y="1170.6934">Use Graph UI</text></g><!--entity BE_Handle--><g class="entity" data-qualified-name="DC.BE.BE_Handle" data-source-line="32" id="ent0009"><ellipse cx="1509.3634" cy="3370.8059" fill="#F1F1F1" rx="463.2072" ry="103.8914" style="stroke:#181818;stroke-width:2.3438;"/><text fill="#000000" font-family="sans-serif" font-size="65.625" lengthAdjust="spacing" textLength="813.0386" x="1102.8441" y="3392.5955">Handle Analysis Request</text></g><!--entity BE_HandleGraph--><g class="entity" data-qualified-name="DC.BE.BE_HandleGraph" data-source-line="33" id="ent0010"><ellipse cx="1509.3881" cy="3005.1671" fill="#F1F1F1" rx="432.2006" ry="97.6901" style="stroke:#181818;stroke-width:2.3438;"/><text fill="#000000" font-family="sans-serif" font-size="65.625" lengthAdjust="spacing" textLength="743.9529" x="1137.4116" y="3026.9567">Handle Graph Request</text></g><!--entity BE_HandleNorm--><g class="entity" data-qualified-name="DC.BE.BE_HandleNorm" data-source-line="34" id="ent0011"><ellipse cx="1509.377" cy="2634.8711" fill="#F1F1F1" rx="491.1113" ry="109.4723" style="stroke:#181818;stroke-width:2.3438;"/><text fill="#000000" font-family="sans-serif" font-size="65.625" lengthAdjust="spacing" textLength="874.3057" x="1072.2241" y="2656.6607">Handle Normalize Request</text></g><!--entity BE_Research--><g class="entity" data-qualified-name="DC.BE.BE_Research" data-source-line="35" id="ent0012"><ellipse cx="1509.3595" cy="2264.5176" fill="#F1F1F1" rx="427.8595" ry="96.8219" style="stroke:#181818;stroke-width:2.3438;"/><text fill="#000000" font-family="sans-serif" font-size="65.625" lengthAdjust="spacing" textLength="734.1797" x="1142.2696" y="2286.3072">Run Research Pipeline</text></g><!--entity BE_Fetch--><g class="entity" data-qualified-name="DC.BE.BE_Fetch" data-source-line="37" id="ent0013"><ellipse cx="2947.8546" cy="3005.1792" fill="#F1F1F1" rx="469.2921" ry="105.1084" style="stroke:#181818;stroke-width:2.3438;"/><text fill="#000000" font-family="sans-serif" font-size="65.625" lengthAdjust="spacing" textLength="826.4648" x="2534.6222" y="3026.9687">Fetch Match + User Data</text></g><!--entity BE_Predict--><g class="entity" data-qualified-name="DC.BE.BE_Predict" data-source-line="38" id="ent0014"><ellipse cx="2947.8802" cy="2269.2187" fill="#F1F1F1" rx="465.4271" ry="104.3354" style="stroke:#181818;stroke-width:2.3438;"/><text fill="#000000" font-family="sans-serif" font-size="65.625" lengthAdjust="spacing" textLength="817.9413" x="2538.9095" y="2291.0082">Predict Cluster Countries</text></g><!--entity User--><g class="entity" data-qualified-name="User" data-source-line="22" id="ent0002"><ellipse cx="347.4043" cy="1178.6801" fill="#FFFFFF" rx="37.5" ry="37.5" style="stroke:#000000;stroke-width:2.3438;"/><path d="M347.4043,1216.1801 L347.4043,1342.7426 M286.4668,1253.6801 L408.3418,1253.6801 M347.4043,1342.7426 L286.4668,1413.0551 M347.4043,1342.7426 L408.3418,1413.0551" fill="none" style="stroke:#000000;stroke-width:2.3438;"/><text fill="#000000" font-family="sans-serif" font-size="65.625" lengthAdjust="spacing" textLength="295.1523" x="199.8281" y="1481.001">End User</text></g><!--entity Researcher--><g class="entity" data-qualified-name="Researcher" data-source-line="23" id="ent0003"><ellipse cx="347.406" cy="2678.6801" fill="#FFFFFF" rx="37.5" ry="37.5" style="stroke:#000000;stroke-width:2.3438;"/><path d="M347.406,2716.1801 L347.406,2842.7426 M286.4685,2753.6801 L408.3435,2753.6801 M347.406,2842.7426 L286.4685,2913.0551 M347.406,2842.7426 L408.3435,2913.0551" fill="none" style="stroke:#000000;stroke-width:2.3438;"/><text fill="#000000" font-family="sans-serif" font-size="65.625" lengthAdjust="spacing" textLength="638.562" x="28.125" y="2981.001">Researcher/Analyst</text></g><!--entity Riot--><g class="entity" data-qualified-name="Riot" data-source-line="42" id="ent0015"><ellipse cx="2947.8678" cy="152.8061" fill="#FFFFFF" rx="37.5" ry="37.5" style="stroke:#000000;stroke-width:2.3438;"/><path d="M2947.8678,190.3061 L2947.8678,316.8686 M2886.9303,227.8061 L3008.8053,227.8061 M2947.8678,316.8686 L2886.9303,387.1811 M2947.8678,316.8686 L3008.8053,387.1811" fill="none" style="stroke:#000000;stroke-width:2.3438;"/><text fill="#000000" font-family="sans-serif" font-size="65.625" lengthAdjust="spacing" textLength="254.393" x="2820.6713" y="455.127">Riot API</text><text fill="#000000" font-family="sans-serif" font-size="65.625" font-style="italic" lengthAdjust="spacing" textLength="325.0168" x="2785.3594" y="97.4854">&#171;System&#187;</text></g><!--entity OR--><g class="entity" data-qualified-name="OR" data-source-line="43" id="ent0016"><ellipse cx="4014.8804" cy="1160.6186" fill="#FFFFFF" rx="37.5" ry="37.5" style="stroke:#000000;stroke-width:2.3438;"/><path d="M4014.8804,1198.1186 L4014.8804,1324.6811 M3953.9429,1235.6186 L4075.8179,1235.6186 M4014.8804,1324.6811 L3953.9429,1394.9936 M4014.8804,1324.6811 L4075.8179,1394.9936" fill="none" style="stroke:#000000;stroke-width:2.3438;"/><text fill="#000000" font-family="sans-serif" font-size="65.625" lengthAdjust="spacing" textLength="520.3857" x="3754.6875" y="1462.9395">OpenRouter API</text><text fill="#000000" font-family="sans-serif" font-size="65.625" font-style="italic" lengthAdjust="spacing" textLength="325.0168" x="3852.372" y="1105.2979">&#171;System&#187;</text></g><!--link User to FE_Analysis--><g class="link" data-entity-1="ent0002" data-entity-2="ent0006" data-link-type="dependency" data-source-line="46" id="lnk17"><path d="M496.9219,1441.1801 C654.1406,1441.1801 879.7969,1441.1801 1093.9688,1441.1801" fill="none" id="User-to-FE_Analysis" style="stroke:#181818;stroke-width:4.6875;"/><polygon fill="#181818" points="1122.0938,1441.1801,1079.9063,1422.4301,1098.6563,1441.1801,1079.9063,1459.9301,1122.0938,1441.1801" style="stroke:#181818;stroke-width:4.6875;"/></g><!--link User to FE_Graph--><g class="link" data-entity-1="ent0002" data-entity-2="ent0007" data-link-type="dependency" data-source-line="47" id="lnk18"><path d="M496.9219,1179.7582 C682.6406,1179.7582 975,1179.7582 1205.7188,1179.7582" fill="none" id="User-to-FE_Graph" style="stroke:#181818;stroke-width:4.6875;"/><polygon fill="#181818" points="1233.8438,1179.7582,1191.6563,1161.0082,1210.4063,1179.7582,1191.6563,1198.5082,1233.8438,1179.7582" style="stroke:#181818;stroke-width:4.6875;"/></g><!--link Researcher to BE_Research--><g class="link" data-entity-1="ent0003" data-entity-2="ent0012" data-link-type="dependency" data-source-line="49" id="lnk19"><path d="M581.2969,2636.5395 C581.2969,2475.2426 581.2969,2264.5395 581.2969,2264.5395 C581.2969,2264.5395 808.4063,2264.5395 1051.1719,2264.5395" fill="none" id="Researcher-to-BE_Research" style="stroke:#181818;stroke-width:4.6875;"/><polygon fill="#181818" points="1079.2969,2264.5395,1037.1094,2245.7895,1055.8594,2264.5395,1037.1094,2283.2895,1079.2969,2264.5395" style="stroke:#181818;stroke-width:4.6875;"/></g><!--link Researcher to BE_HandleNorm--><g class="link" data-entity-1="ent0003" data-entity-2="ent0011" data-link-type="dependency" data-source-line="50" id="lnk20"><path d="M667.9688,2691.5707 C796.9688,2691.5707 919.4062,2691.5707 1057.2188,2691.5707" fill="none" id="Researcher-to-BE_HandleNorm" style="stroke:#181818;stroke-width:4.6875;"/><polygon fill="#181818" points="1085.3438,2691.5707,1043.1563,2672.8207,1061.9063,2691.5707,1043.1563,2710.3207,1085.3438,2691.5707" style="stroke:#181818;stroke-width:4.6875;"/></g><!--link Researcher to BE_HandleGraph--><g class="link" data-entity-1="ent0003" data-entity-2="ent0010" data-link-type="dependency" data-source-line="51" id="lnk21"><path d="M667.9688,2951.9614 C815.1094,2951.9614 962.1563,2951.9614 1114.5,2951.9614" fill="none" id="Researcher-to-BE_HandleGraph" style="stroke:#181818;stroke-width:4.6875;"/><polygon fill="#181818" points="1142.625,2951.9614,1100.4375,2933.2114,1119.1875,2951.9614,1100.4375,2970.7114,1142.625,2951.9614" style="stroke:#181818;stroke-width:4.6875;"/></g><!--link Researcher to BE_Handle--><g class="link" data-entity-1="ent0003" data-entity-2="ent0009" data-link-type="dependency" data-source-line="52" id="lnk22"><path d="M351.6094,2998.7895 C351.6094,3160.0864 351.6094,3370.7895 351.6094,3370.7895 C351.6094,3370.7895 694.9219,3370.7895 1017,3370.7895" fill="none" id="Researcher-to-BE_Handle" style="stroke:#181818;stroke-width:4.6875;"/><polygon fill="#181818" points="1045.125,3370.7895,1002.9375,3352.0395,1021.6875,3370.7895,1002.9375,3389.5395,1045.125,3370.7895" style="stroke:#181818;stroke-width:4.6875;"/></g><!--link BE_Handle to BE_Fetch--><g class="link" data-entity-1="ent0009" data-entity-2="ent0013" data-link-type="dependency" data-source-line="55" id="lnk23"><path d="M1974.6094,3370.7895 C2395.0781,3370.7895 2948.4844,3370.7895 2948.4844,3370.7895 C2948.4844,3370.7895 2948.4844,3247.0395 2948.4844,3139.0395" fill="none" id="BE_Handle-to-BE_Fetch" style="stroke:#808080;stroke-width:4.6875;stroke-dasharray:32.8125,32.8125;"/><polygon fill="#808080" points="2948.4844,3110.9145,2929.7344,3153.102,2948.4844,3134.352,2967.2344,3153.102,2948.4844,3110.9145" style="stroke:#808080;stroke-width:4.6875;"/><text fill="#000000" font-family="sans-serif" font-size="65.625" lengthAdjust="spacing" textLength="318.0634" x="2272.7344" y="3436.3916">&#171;include&#187;</text></g><!--link BE_Research to BE_Predict--><g class="link" data-entity-1="ent0012" data-entity-2="ent0014" data-link-type="dependency" data-source-line="56" id="lnk24"><path d="M1939.0313,2264.5395 C2109.9844,2264.5395 2279.0156,2264.5395 2453.4375,2264.5395" fill="none" id="BE_Research-to-BE_Predict" style="stroke:#808080;stroke-width:4.6875;stroke-dasharray:32.8125,32.8125;"/><polygon fill="#808080" points="2481.5625,2264.5395,2439.375,2245.7895,2458.125,2264.5395,2439.375,2283.2895,2481.5625,2264.5395" style="stroke:#808080;stroke-width:4.6875;"/><text fill="#000000" font-family="sans-serif" font-size="65.625" lengthAdjust="spacing" textLength="318.0634" x="1891.5469" y="2330.1416">&#171;include&#187;</text></g><!--link BE_Fetch to Riot--><g class="link" data-entity-1="ent0013" data-entity-2="ent0015" data-link-type="dependency" data-source-line="59" id="lnk25"><path d="M3418.3594,3005.1645 C3513.9844,3005.1645 3585.9844,3005.1645 3585.9844,3005.1645 C3585.9844,3005.1645 3585.9844,253.602 3585.9844,253.602 C3585.9844,253.602 3334.4063,253.602 3145.3594,253.602" fill="none" id="BE_Fetch-to-Riot" style="stroke:#181818;stroke-width:4.6875;"/><polygon fill="#181818" points="3117.2344,253.602,3159.4219,272.352,3140.6719,253.602,3159.4219,234.852,3117.2344,253.602" style="stroke:#181818;stroke-width:4.6875;"/></g><!--link BE_Predict to OR--><g class="link" data-entity-1="ent0014" data-entity-2="ent0016" data-link-type="dependency" data-source-line="60" id="lnk26"><path d="M3267.2344,2191.977 C3267.2344,1984.7426 3267.2344,1432.1332 3267.2344,1432.1332 C3267.2344,1432.1332 3509.6719,1432.1332 3725.25,1432.1332" fill="none" id="BE_Predict-to-OR" style="stroke:#181818;stroke-width:4.6875;"/><polygon fill="#181818" points="3753.375,1432.1332,3711.1875,1413.3832,3729.9375,1432.1332,3711.1875,1450.8832,3753.375,1432.1332" style="stroke:#181818;stroke-width:4.6875;"/></g><!--link FE to BE--><!--link Riot to OR--><?plantuml-src TLJVJzim47xFNt5Y3u1G6UpNmuGgqL-q4bkhL6mF226JN1ElhftP3YER-DztjfCqqDAdnlTzTz_TPzyXJ7cMWqQZH6cvah1I6gOZmAT2QHkPDPS5qsm3QS7XuzbPT0ZBX0aqO7C4b9PhX9Ipp67A8Z8k2EUddo4IkB9W5MYgO0cZCN4LEZa5bsYh0e5AvQeJA5YoPXakRKN978_9J614nNkz7hXZBZClTJ2xkXh7S9bOfOsBThBumucITid_8dmuUnrQMjIed80MTFw5QdnZwxe_OtcoXXNFIXrEDWR58_qLJ6UeEmcPImZ_8g3Vifc1_nfGBvbMfKo7IX3cPyujXeZIAUfmEX04YvvTYpEPQ6I6gcGeKJC15fyi6AVFjKp1b3rmmMtLzGTNh1HssycdA0gY3iOoXHk3-W2OyN-QG8m6cKvorEyl9HELiHwoFOwYTlXmC5B96ZKCgG8ZuqAwqR1kkWESQ88W5Vr1dS8IzIFHZcAagd0pE_QyoRZckLzfCA66uO34qVHjaaFGmqdlhCRVDqVxQLUQ5Na7xRyzb8RwIg2pnEbhf8sV2lBNmELY1YUmgEWoIlYb7apGEjYhTSfaIibQeJ7-Bh6Uu61y7y9lqeBSlPojydt4xqflc70ExoMxy2utBcNhAYnuWUxbDSGc4Eto9kYy28wS-Ai38sPPm_JXNTP2Oyh9ww4eZVKtffHMSpGDhmRKxZot5pNcoZeJmYrq7nSNIxgLkEdt6yoyG1chqkLjaFEuYwkNn4Bp3TDLUEdKl61k-OGLuHlfzVelRbNtC5WGRH-23tHdjHlgpF-jO4ZxLhHHJkzVb2az_wCPFIDD-g2viDSguycnxw6bmUdjEzg-rTrfl_K4lj94UCX38-a8VuLkh7g9huNCI_lWzfP_5qCcX6agXo8zlzcf1MTLrCdM1kPna-kQLMGQJ54KM2zgMW6zsvodASgxG215aRUzFK_L7qb2uly0?></g></svg>