<svg xmlns="http://www.w3.org/2000/svg" xmlns:xlink="http://www.w3.org/1999/xlink" contentStyleType="text/css" data-diagram-type="CLASS" height="1245px" preserveAspectRatio="none" style="width:716px;height:1245px;background:#FFFFFF;" version="1.1" viewBox="0 0 716 1245" width="716px" zoomAndPan="magnify"><?plantuml 1.2026.3beta6?><defs/><g><g class="title" data-source-line="1"><text fill="#000000" font-family="sans-serif" font-size="14" font-weight="700" lengthAdjust="spacing" textLength="234.6709" x="237.1646" y="22.9951">Pathfinder Lab Class Diagram</text></g><!--cluster Backend--><g class="cluster" data-qualified-name="Backend" data-source-line="21" id="ent0002"><rect fill="#FBFBFB" height="370.61" rx="2.5" ry="2.5" style="stroke:#777777;stroke-width:1.5;" width="437" x="265" y="44.2969"/><text fill="#222222" font-family="sans-serif" font-size="14" font-weight="700" lengthAdjust="spacing" textLength="67.2109" x="449.8945" y="59.292">Backend</text></g><!--cluster Rust Core--><g class="cluster" data-qualified-name="Rust Core" data-source-line="46" id="ent0006"><rect fill="#FBFBFB" height="767.52" rx="2.5" ry="2.5" style="stroke:#777777;stroke-width:1.5;" width="546" x="7" y="463.9069"/><text fill="#222222" font-family="sans-serif" font-size="14" font-weight="700" lengthAdjust="spacing" textLength="76.9385" x="241.5308" y="478.902">Rust Core</text></g><!--class Server--><g class="entity" data-qualified-name="Backend.Server" data-source-line="22" id="ent0003"><rect fill="#FFFFFF" height="145.75" rx="2.5" ry="2.5" style="stroke:#4A4A4A;stroke-width:0.5;" width="269.8311" x="325.08" y="79.2969"/><ellipse cx="415.4438" cy="99.4297" fill="#F4F4F4" rx="11" ry="11" style="stroke:#7A7A7A;stroke-width:1;"/><path d="M418.4125,105.0703 Q417.8344,105.3672 417.1938,105.5078 Q416.5531,105.6641 415.85,105.6641 Q413.35,105.6641 412.0219,104.0234 Q410.7094,102.3672 410.7094,99.2422 Q410.7094,96.1172 412.0219,94.4609 Q413.35,92.8047 415.85,92.8047 Q416.5531,92.8047 417.1938,92.9609 Q417.85,93.1172 418.4125,93.4141 L418.4125,96.1328 Q417.7875,95.5547 417.1938,95.2891 Q416.6,95.0078 415.975,95.0078 Q414.6313,95.0078 413.9438,96.0859 Q413.2563,97.1484 413.2563,99.2422 Q413.2563,101.3359 413.9438,102.4141 Q414.6313,103.4766 415.975,103.4766 Q416.6,103.4766 417.1938,103.2109 Q417.7875,102.9297 418.4125,102.3516 L418.4125,105.0703 Z " fill="#000000"/><text fill="#000000" font-family="sans-serif" font-size="12" font-style="italic" lengthAdjust="spacing" textLength="84.6035" x="433.9438" y="95.4355">&#171;Express API&#187;</text><text fill="#222222" font-family="sans-serif" font-size="14" lengthAdjust="spacing" textLength="59.9512" x="446.2699" y="111.2607">server.js</text><line style="stroke:#4A4A4A;stroke-width:0.5;" x1="326.08" x2="593.9111" y1="119.5625" y2="119.5625"/><line style="stroke:#4A4A4A;stroke-width:1;" x1="326.08" x2="593.9111" y1="127.5625" y2="127.5625"/><text fill="#000000" font-family="sans-serif" font-size="14" lengthAdjust="spacing" textLength="63.6768" x="331.08" y="144.5576">replayDb</text><text fill="#000000" font-family="sans-serif" font-size="14" lengthAdjust="spacing" textLength="138.8174" x="331.08" y="160.8545">rustResponseCache</text><line style="stroke:#4A4A4A;stroke-width:1;" x1="326.08" x2="593.9111" y1="168.1563" y2="168.1563"/><g data-visibility-modifier="PUBLIC_FIELD"><ellipse cx="336.08" cy="181.8047" fill="none" rx="3" ry="3" style="stroke:#038048;stroke-width:1;"/></g><text fill="#000000" font-family="sans-serif" font-size="14" lengthAdjust="spacing" textLength="225.0049" x="345.08" y="185.1514">GET /api/pathfinder-rust/options</text><g data-visibility-modifier="PUBLIC_FIELD"><ellipse cx="336.08" cy="198.1016" fill="none" rx="3" ry="3" style="stroke:#038048;stroke-width:1;"/></g><text fill="#000000" font-family="sans-serif" font-size="14" lengthAdjust="spacing" textLength="205.5977" x="345.08" y="201.4482">POST /api/pathfinder-rust/run</text><g data-visibility-modifier="PUBLIC_FIELD"><ellipse cx="336.08" cy="214.3984" fill="none" rx="3" ry="3" style="stroke:#038048;stroke-width:1;"/></g><text fill="#000000" font-family="sans-serif" font-size="14" lengthAdjust="spacing" textLength="243.8311" x="345.08" y="217.7451">POST /api/pathfinder-rust/compare</text></g><!--class rustBridge--><g class="entity" data-qualified-name="Backend.rustBridge" data-source-line="32" id="ent0004"><rect fill="#FFFFFF" height="96.8594" rx="2.5" ry="2.5" style="stroke:#4A4A4A;stroke-width:0.5;" width="196.4473" x="280.78" y="302.0469"/><ellipse cx="332.2868" cy="322.1797" fill="#F4F4F4" rx="11" ry="11" style="stroke:#7A7A7A;stroke-width:1;"/><path d="M335.2556,327.8203 Q334.6775,328.1172 334.0368,328.2578 Q333.3962,328.4141 332.6931,328.4141 Q330.1931,328.4141 328.865,326.7734 Q327.5525,325.1172 327.5525,321.9922 Q327.5525,318.8672 328.865,317.2109 Q330.1931,315.5547 332.6931,315.5547 Q333.3962,315.5547 334.0368,315.7109 Q334.6931,315.8672 335.2556,316.1641 L335.2556,318.8828 Q334.6306,318.3047 334.0368,318.0391 Q333.4431,317.7578 332.8181,317.7578 Q331.4743,317.7578 330.7868,318.8359 Q330.0993,319.8984 330.0993,321.9922 Q330.0993,324.0859 330.7868,325.1641 Q331.4743,326.2266 332.8181,326.2266 Q333.4431,326.2266 334.0368,325.9609 Q334.6306,325.6797 335.2556,325.1016 L335.2556,327.8203 Z " fill="#000000"/><text fill="#000000" font-family="sans-serif" font-size="12" font-style="italic" lengthAdjust="spacing" textLength="88.9336" x="350.7868" y="318.1855">&#171;Node Bridge&#187;</text><text fill="#222222" font-family="sans-serif" font-size="14" lengthAdjust="spacing" textLength="73.0488" x="358.7292" y="334.0107">rustBridge</text><line style="stroke:#4A4A4A;stroke-width:0.5;" x1="281.78" x2="476.2273" y1="342.3125" y2="342.3125"/><line style="stroke:#4A4A4A;stroke-width:1;" x1="281.78" x2="476.2273" y1="350.3125" y2="350.3125"/><text fill="#000000" font-family="sans-serif" font-size="14" lengthAdjust="spacing" textLength="137.2861" x="286.78" y="367.3076">rustProjectDir: path</text><line style="stroke:#4A4A4A;stroke-width:1;" x1="281.78" x2="476.2273" y1="374.6094" y2="374.6094"/><g data-visibility-modifier="PUBLIC_METHOD"><ellipse cx="291.78" cy="388.2578" fill="#84BE84" rx="3" ry="3" style="stroke:#038048;stroke-width:1;"/></g><text fill="#000000" font-family="sans-serif" font-size="14" lengthAdjust="spacing" textLength="170.4473" x="300.78" y="391.6045">executeRustCommand()</text></g><!--class prototypeEngine--><g class="entity" data-qualified-name="Backend.prototypeEngine" data-source-line="39" id="ent0005"><rect fill="#FFFFFF" height="88.8594" rx="2.5" ry="2.5" style="stroke:#4A4A4A;stroke-width:0.5;" width="174.5176" x="511.74" y="306.0469"/><ellipse cx="538.4396" cy="326.1797" fill="#F4F4F4" rx="11" ry="11" style="stroke:#7A7A7A;stroke-width:1;"/><path d="M541.4083,331.8203 Q540.8302,332.1172 540.1896,332.2578 Q539.5489,332.4141 538.8458,332.4141 Q536.3458,332.4141 535.0177,330.7734 Q533.7052,329.1172 533.7052,325.9922 Q533.7052,322.8672 535.0177,321.2109 Q536.3458,319.5547 538.8458,319.5547 Q539.5489,319.5547 540.1896,319.7109 Q540.8458,319.8672 541.4083,320.1641 L541.4083,322.8828 Q540.7833,322.3047 540.1896,322.0391 Q539.5958,321.7578 538.9708,321.7578 Q537.6271,321.7578 536.9396,322.8359 Q536.2521,323.8984 536.2521,325.9922 Q536.2521,328.0859 536.9396,329.1641 Q537.6271,330.2266 538.9708,330.2266 Q539.5958,330.2266 540.1896,329.9609 Q540.7833,329.6797 541.4083,329.1016 L541.4083,331.8203 Z " fill="#000000"/><text fill="#000000" font-family="sans-serif" font-size="12" font-style="italic" lengthAdjust="spacing" textLength="102.3633" x="562.1171" y="322.1855">&#171;Legacy Engine&#187;</text><text fill="#222222" font-family="sans-serif" font-size="14" lengthAdjust="spacing" textLength="116.5186" x="555.0395" y="338.0107">prototypeEngine</text><line style="stroke:#4A4A4A;stroke-width:0.5;" x1="512.74" x2="685.2576" y1="346.3125" y2="346.3125"/><line style="stroke:#4A4A4A;stroke-width:1;" x1="512.74" x2="685.2576" y1="354.3125" y2="354.3125"/><g data-visibility-modifier="PUBLIC_METHOD"><ellipse cx="522.74" cy="367.9609" fill="#84BE84" rx="3" ry="3" style="stroke:#038048;stroke-width:1;"/></g><text fill="#000000" font-family="sans-serif" font-size="14" lengthAdjust="spacing" textLength="82.8311" x="531.74" y="371.3076">runSearch()</text><g data-visibility-modifier="PUBLIC_METHOD"><ellipse cx="522.74" cy="384.2578" fill="#84BE84" rx="3" ry="3" style="stroke:#038048;stroke-width:1;"/></g><text fill="#000000" font-family="sans-serif" font-size="14" lengthAdjust="spacing" textLength="148.5176" x="531.74" y="387.6045">compareAlgorithms()</text></g><!--class MainRs--><g class="entity" data-qualified-name="Rust Core.MainRs" data-source-line="47" id="ent0007"><rect fill="#FFFFFF" height="113.1563" rx="2.5" ry="2.5" style="stroke:#4A4A4A;stroke-width:0.5;" width="132.8252" x="312.59" y="498.9069"/><ellipse cx="329.9266" cy="519.0397" fill="#F4F4F4" rx="11" ry="11" style="stroke:#7A7A7A;stroke-width:1;"/><path d="M332.8953,524.6803 Q332.3172,524.9772 331.6766,525.1178 Q331.0359,525.2741 330.3328,525.2741 Q327.8328,525.2741 326.5047,523.6334 Q325.1922,521.9772 325.1922,518.8522 Q325.1922,515.7272 326.5047,514.0709 Q327.8328,512.4147 330.3328,512.4147 Q331.0359,512.4147 331.6766,512.5709 Q332.3328,512.7272 332.8953,513.0241 L332.8953,515.7428 Q332.2703,515.1647 331.6766,514.8991 Q331.0828,514.6178 330.4578,514.6178 Q329.1141,514.6178 328.4266,515.6959 Q327.7391,516.7584 327.7391,518.8522 Q327.7391,520.9459 328.4266,522.0241 Q329.1141,523.0866 330.4578,523.0866 Q331.0828,523.0866 331.6766,522.8209 Q332.2703,522.5397 332.8953,521.9616 L332.8953,524.6803 Z " fill="#000000"/><text fill="#000000" font-family="sans-serif" font-size="12" font-style="italic" lengthAdjust="spacing" textLength="99.6328" x="342.4458" y="515.0455">&#171;CLI Entrypoint&#187;</text><text fill="#222222" font-family="sans-serif" font-size="14" lengthAdjust="spacing" textLength="52.4795" x="366.0225" y="530.8707">main.rs</text><line style="stroke:#4A4A4A;stroke-width:0.5;" x1="313.59" x2="444.4152" y1="539.1725" y2="539.1725"/><line style="stroke:#4A4A4A;stroke-width:1;" x1="313.59" x2="444.4152" y1="547.1725" y2="547.1725"/><text fill="#000000" font-family="sans-serif" font-size="14" lengthAdjust="spacing" textLength="120.8252" x="318.59" y="564.1676">command: String</text><line style="stroke:#4A4A4A;stroke-width:1;" x1="313.59" x2="444.4152" y1="571.4694" y2="571.4694"/><g data-visibility-modifier="PUBLIC_METHOD"><ellipse cx="323.59" cy="585.1178" fill="#84BE84" rx="3" ry="3" style="stroke:#038048;stroke-width:1;"/></g><text fill="#000000" font-family="sans-serif" font-size="14" lengthAdjust="spacing" textLength="45.9033" x="332.59" y="588.4645">main()</text><g data-visibility-modifier="PUBLIC_METHOD"><ellipse cx="323.59" cy="601.4147" fill="#84BE84" rx="3" ry="3" style="stroke:#038048;stroke-width:1;"/></g><text fill="#000000" font-family="sans-serif" font-size="14" lengthAdjust="spacing" textLength="84.1914" x="332.59" y="604.7614">read_stdin()</text></g><!--class engine--><g class="entity" data-qualified-name="Rust Core.engine" data-source-line="55" id="ent0008"><rect fill="#FFFFFF" height="105.1563" rx="2.5" ry="2.5" style="stroke:#4A4A4A;stroke-width:0.5;" width="180.5195" x="167.74" y="689.0669"/><ellipse cx="210.4809" cy="709.1997" fill="#F4F4F4" rx="11" ry="11" style="stroke:#7A7A7A;stroke-width:1;"/><path d="M213.4497,714.8403 Q212.8715,715.1372 212.2309,715.2778 Q211.5903,715.4341 210.8872,715.4341 Q208.3872,715.4341 207.059,713.7934 Q205.7465,712.1372 205.7465,709.0122 Q205.7465,705.8872 207.059,704.2309 Q208.3872,702.5747 210.8872,702.5747 Q211.5903,702.5747 212.2309,702.7309 Q212.8872,702.8872 213.4497,703.1841 L213.4497,705.9028 Q212.8247,705.3247 212.2309,705.0591 Q211.6372,704.7778 211.0122,704.7778 Q209.6684,704.7778 208.9809,705.8559 Q208.2934,706.9184 208.2934,709.0122 Q208.2934,711.1059 208.9809,712.1841 Q209.6684,713.2466 211.0122,713.2466 Q211.6372,713.2466 212.2309,712.9809 Q212.8247,712.6997 213.4497,712.1216 L213.4497,714.8403 Z " fill="#000000"/><text fill="#000000" font-family="sans-serif" font-size="12" font-style="italic" lengthAdjust="spacing" textLength="90.873" x="228.6456" y="705.2055">&#171;Orchestrator&#187;</text><text fill="#222222" font-family="sans-serif" font-size="14" lengthAdjust="spacing" textLength="47.749" x="250.2076" y="721.0307">engine</text><line style="stroke:#4A4A4A;stroke-width:0.5;" x1="168.74" x2="347.2595" y1="729.3325" y2="729.3325"/><line style="stroke:#4A4A4A;stroke-width:1;" x1="168.74" x2="347.2595" y1="737.3325" y2="737.3325"/><g data-visibility-modifier="PUBLIC_METHOD"><ellipse cx="178.74" cy="750.9809" fill="#84BE84" rx="3" ry="3" style="stroke:#038048;stroke-width:1;"/></g><text fill="#000000" font-family="sans-serif" font-size="14" lengthAdjust="spacing" textLength="88.2383" x="187.74" y="754.3276">run_search()</text><g data-visibility-modifier="PUBLIC_METHOD"><ellipse cx="178.74" cy="767.2778" fill="#84BE84" rx="3" ry="3" style="stroke:#038048;stroke-width:1;"/></g><text fill="#000000" font-family="sans-serif" font-size="14" lengthAdjust="spacing" textLength="154.5195" x="187.74" y="770.6245">compare_algorithms()</text><g data-visibility-modifier="PUBLIC_METHOD"><ellipse cx="178.74" cy="783.5747" fill="#84BE84" rx="3" ry="3" style="stroke:#038048;stroke-width:1;"/></g><text fill="#000000" font-family="sans-serif" font-size="14" lengthAdjust="spacing" textLength="133.3828" x="187.74" y="786.9214">options_response()</text></g><!--class GraphState--><g class="entity" data-qualified-name="Rust Core.GraphState" data-source-line="62" id="ent0009"><rect fill="#FFFFFF" height="145.75" rx="2.5" ry="2.5" style="stroke:#4A4A4A;stroke-width:0.5;" width="161.7959" x="23.1" y="871.2269"/><ellipse cx="52.8168" cy="891.3597" fill="#F4F4F4" rx="11" ry="11" style="stroke:#7A7A7A;stroke-width:1;"/><path d="M55.7856,897.0003 Q55.2075,897.2972 54.5668,897.4378 Q53.9262,897.5941 53.2231,897.5941 Q50.7231,897.5941 49.395,895.9534 Q48.0825,894.2972 48.0825,891.1722 Q48.0825,888.0472 49.395,886.3909 Q50.7231,884.7347 53.2231,884.7347 Q53.9262,884.7347 54.5668,884.8909 Q55.2231,885.0472 55.7856,885.3441 L55.7856,888.0628 Q55.1606,887.4847 54.5668,887.2191 Q53.9731,886.9378 53.3481,886.9378 Q52.0043,886.9378 51.3168,888.0159 Q50.6293,889.0784 50.6293,891.1722 Q50.6293,893.2659 51.3168,894.3441 Q52.0043,895.4066 53.3481,895.4066 Q53.9731,895.4066 54.5668,895.1409 Q55.1606,894.8597 55.7856,894.2816 L55.7856,897.0003 Z " fill="#000000"/><text fill="#000000" font-family="sans-serif" font-size="12" font-style="italic" lengthAdjust="spacing" textLength="101.0918" x="68.0873" y="887.3655">&#171;Domain Model&#187;</text><text fill="#222222" font-family="sans-serif" font-size="14" lengthAdjust="spacing" textLength="80.001" x="78.6327" y="903.1907">GraphState</text><line style="stroke:#4A4A4A;stroke-width:0.5;" x1="24.1" x2="183.8959" y1="911.4925" y2="911.4925"/><line style="stroke:#4A4A4A;stroke-width:1;" x1="24.1" x2="183.8959" y1="919.4925" y2="919.4925"/><text fill="#000000" font-family="sans-serif" font-size="14" lengthAdjust="spacing" textLength="73.042" x="29.1" y="936.4876">node_map</text><text fill="#000000" font-family="sans-serif" font-size="14" lengthAdjust="spacing" textLength="71.1006" x="29.1" y="952.7845">adjacency</text><text fill="#000000" font-family="sans-serif" font-size="14" lengthAdjust="spacing" textLength="95.0605" x="29.1" y="969.0814">pair_relations</text><text fill="#000000" font-family="sans-serif" font-size="14" lengthAdjust="spacing" textLength="52.9307" x="29.1" y="985.3782">dataset</text><line style="stroke:#4A4A4A;stroke-width:1;" x1="24.1" x2="183.8959" y1="992.68" y2="992.68"/><g data-visibility-modifier="PUBLIC_METHOD"><ellipse cx="34.1" cy="1006.3284" fill="#84BE84" rx="3" ry="3" style="stroke:#038048;stroke-width:1;"/></g><text fill="#000000" font-family="sans-serif" font-size="14" lengthAdjust="spacing" textLength="135.7959" x="43.1" y="1009.6751">build_graph_state()</text></g><!--class Neighbor--><g class="entity" data-qualified-name="Rust Core.Neighbor" data-source-line="72" id="ent0010"><rect fill="#FFFFFF" height="121.4531" rx="2.5" ry="2.5" style="stroke:#4A4A4A;stroke-width:0.5;" width="139.4492" x="28.28" y="1093.9769"/><ellipse cx="52.273" cy="1114.1097" fill="#F4F4F4" rx="11" ry="11" style="stroke:#7A7A7A;stroke-width:1;"/><path d="M55.2417,1119.7503 Q54.6636,1120.0472 54.023,1120.1878 Q53.3823,1120.3441 52.6792,1120.3441 Q50.1792,1120.3441 48.8511,1118.7034 Q47.5386,1117.0472 47.5386,1113.9222 Q47.5386,1110.7972 48.8511,1109.1409 Q50.1792,1107.4847 52.6792,1107.4847 Q53.3823,1107.4847 54.023,1107.6409 Q54.6792,1107.7972 55.2417,1108.0941 L55.2417,1110.8128 Q54.6167,1110.2347 54.023,1109.9691 Q53.4292,1109.6878 52.8042,1109.6878 Q51.4605,1109.6878 50.773,1110.7659 Q50.0855,1111.8284 50.0855,1113.9222 Q50.0855,1116.0159 50.773,1117.0941 Q51.4605,1118.1566 52.8042,1118.1566 Q53.4292,1118.1566 54.023,1117.8909 Q54.6167,1117.6097 55.2417,1117.0316 L55.2417,1119.7503 Z " fill="#000000"/><text fill="#000000" font-family="sans-serif" font-size="12" font-style="italic" lengthAdjust="spacing" textLength="91.4648" x="66.2714" y="1110.1155">&#171;Value Object&#187;</text><text fill="#222222" font-family="sans-serif" font-size="14" lengthAdjust="spacing" textLength="63.9434" x="80.0321" y="1125.9407">Neighbor</text><line style="stroke:#4A4A4A;stroke-width:0.5;" x1="29.28" x2="166.7292" y1="1134.2425" y2="1134.2425"/><line style="stroke:#4A4A4A;stroke-width:1;" x1="29.28" x2="166.7292" y1="1142.2425" y2="1142.2425"/><text fill="#000000" font-family="sans-serif" font-size="14" lengthAdjust="spacing" textLength="12.7764" x="34.28" y="1159.2376">id</text><text fill="#000000" font-family="sans-serif" font-size="14" lengthAdjust="spacing" textLength="78.8457" x="34.28" y="1175.5345">ally_weight</text><text fill="#000000" font-family="sans-serif" font-size="14" lengthAdjust="spacing" textLength="99.1963" x="34.28" y="1191.8314">total_matches</text><text fill="#000000" font-family="sans-serif" font-size="14" lengthAdjust="spacing" textLength="127.4492" x="34.28" y="1208.1282">dominant_relation</text></g><!--class PairRelation--><g class="entity" data-qualified-name="Rust Core.PairRelation" data-source-line="80" id="ent0011"><rect fill="#FFFFFF" height="121.4531" rx="2.5" ry="2.5" style="stroke:#4A4A4A;stroke-width:0.5;" width="139.4492" x="202.28" y="1093.9769"/><ellipse cx="226.273" cy="1114.1097" fill="#F4F4F4" rx="11" ry="11" style="stroke:#7A7A7A;stroke-width:1;"/><path d="M229.2417,1119.7503 Q228.6636,1120.0472 228.023,1120.1878 Q227.3823,1120.3441 226.6792,1120.3441 Q224.1792,1120.3441 222.8511,1118.7034 Q221.5386,1117.0472 221.5386,1113.9222 Q221.5386,1110.7972 222.8511,1109.1409 Q224.1792,1107.4847 226.6792,1107.4847 Q227.3823,1107.4847 228.023,1107.6409 Q228.6792,1107.7972 229.2417,1108.0941 L229.2417,1110.8128 Q228.6167,1110.2347 228.023,1109.9691 Q227.4292,1109.6878 226.8042,1109.6878 Q225.4605,1109.6878 224.773,1110.7659 Q224.0855,1111.8284 224.0855,1113.9222 Q224.0855,1116.0159 224.773,1117.0941 Q225.4605,1118.1566 226.8042,1118.1566 Q227.4292,1118.1566 228.023,1117.8909 Q228.6167,1117.6097 229.2417,1117.0316 L229.2417,1119.7503 Z " fill="#000000"/><text fill="#000000" font-family="sans-serif" font-size="12" font-style="italic" lengthAdjust="spacing" textLength="91.4648" x="240.2714" y="1110.1155">&#171;Value Object&#187;</text><text fill="#222222" font-family="sans-serif" font-size="14" lengthAdjust="spacing" textLength="84.2939" x="243.8569" y="1125.9407">PairRelation</text><line style="stroke:#4A4A4A;stroke-width:0.5;" x1="203.28" x2="340.7292" y1="1134.2425" y2="1134.2425"/><line style="stroke:#4A4A4A;stroke-width:1;" x1="203.28" x2="340.7292" y1="1142.2425" y2="1142.2425"/><text fill="#000000" font-family="sans-serif" font-size="14" lengthAdjust="spacing" textLength="78.8457" x="208.28" y="1159.2376">ally_weight</text><text fill="#000000" font-family="sans-serif" font-size="14" lengthAdjust="spacing" textLength="102.2246" x="208.28" y="1175.5345">enemy_weight</text><text fill="#000000" font-family="sans-serif" font-size="14" lengthAdjust="spacing" textLength="99.1963" x="208.28" y="1191.8314">total_matches</text><text fill="#000000" font-family="sans-serif" font-size="14" lengthAdjust="spacing" textLength="127.4492" x="208.28" y="1208.1282">dominant_relation</text></g><!--class SearchResult--><g class="entity" data-qualified-name="Rust Core.SearchResult" data-source-line="88" id="ent0012"><rect fill="#FFFFFF" height="105.1563" rx="2.5" ry="2.5" style="stroke:#4A4A4A;stroke-width:0.5;" width="130.5742" x="219.71" y="891.5169"/><ellipse cx="234.71" cy="911.6497" fill="#F4F4F4" rx="11" ry="11" style="stroke:#7A7A7A;stroke-width:1;"/><path d="M237.6788,917.2903 Q237.1006,917.5872 236.46,917.7278 Q235.8194,917.8841 235.1163,917.8841 Q232.6163,917.8841 231.2881,916.2434 Q229.9756,914.5872 229.9756,911.4622 Q229.9756,908.3372 231.2881,906.6809 Q232.6163,905.0247 235.1163,905.0247 Q235.8194,905.0247 236.46,905.1809 Q237.1163,905.3372 237.6788,905.6341 L237.6788,908.3528 Q237.0538,907.7747 236.46,907.5091 Q235.8663,907.2278 235.2413,907.2278 Q233.8975,907.2278 233.21,908.3059 Q232.5225,909.3684 232.5225,911.4622 Q232.5225,913.5559 233.21,914.6341 Q233.8975,915.6966 235.2413,915.6966 Q235.8663,915.6966 236.46,915.4309 Q237.0538,915.1497 237.6788,914.5716 L237.6788,917.2903 Z " fill="#000000"/><text fill="#000000" font-family="sans-serif" font-size="12" font-style="italic" lengthAdjust="spacing" textLength="102.5742" x="246.71" y="907.6555">&#171;Internal Result&#187;</text><text fill="#222222" font-family="sans-serif" font-size="14" lengthAdjust="spacing" textLength="92.292" x="251.8511" y="923.4807">SearchResult</text><line style="stroke:#4A4A4A;stroke-width:0.5;" x1="220.71" x2="349.2842" y1="931.7825" y2="931.7825"/><line style="stroke:#4A4A4A;stroke-width:1;" x1="220.71" x2="349.2842" y1="939.7825" y2="939.7825"/><text fill="#000000" font-family="sans-serif" font-size="14" lengthAdjust="spacing" textLength="40.127" x="225.71" y="956.7776">found</text><text fill="#000000" font-family="sans-serif" font-size="14" lengthAdjust="spacing" textLength="81.0605" x="225.71" y="973.0745">path_nodes</text><text fill="#000000" font-family="sans-serif" font-size="14" lengthAdjust="spacing" textLength="92.8457" x="225.71" y="989.3714">visited_count</text></g><!--class RustDTOs--><g class="entity" data-qualified-name="Rust Core.RustDTOs" data-source-line="95" id="ent0013"><rect fill="#FFFFFF" height="137.75" rx="2.5" ry="2.5" style="stroke:#4A4A4A;stroke-width:0.5;" width="152.1982" x="384.9" y="875.2269"/><ellipse cx="404.2721" cy="895.3597" fill="#F4F4F4" rx="11" ry="11" style="stroke:#7A7A7A;stroke-width:1;"/><path d="M407.2409,901.0003 Q406.6627,901.2972 406.0221,901.4378 Q405.3815,901.5941 404.6784,901.5941 Q402.1784,901.5941 400.8502,899.9534 Q399.5377,898.2972 399.5377,895.1722 Q399.5377,892.0472 400.8502,890.3909 Q402.1784,888.7347 404.6784,888.7347 Q405.3815,888.7347 406.0221,888.8909 Q406.6784,889.0472 407.2409,889.3441 L407.2409,892.0628 Q406.6159,891.4847 406.0221,891.2191 Q405.4284,890.9378 404.8034,890.9378 Q403.4596,890.9378 402.7721,892.0159 Q402.0846,893.0784 402.0846,895.1722 Q402.0846,897.2659 402.7721,898.3441 Q403.4596,899.4066 404.8034,899.4066 Q405.4284,899.4066 406.0221,899.1409 Q406.6159,898.8597 407.2409,898.2816 L407.2409,901.0003 Z " fill="#000000"/><text fill="#000000" font-family="sans-serif" font-size="12" font-style="italic" lengthAdjust="spacing" textLength="81.3105" x="433.8296" y="891.3655">&#171;DTO Group&#187;</text><text fill="#222222" font-family="sans-serif" font-size="14" lengthAdjust="spacing" textLength="110.4824" x="419.2437" y="907.1907">models.rs DTOs</text><line style="stroke:#4A4A4A;stroke-width:0.5;" x1="385.9" x2="536.0982" y1="915.4925" y2="915.4925"/><line style="stroke:#4A4A4A;stroke-width:1;" x1="385.9" x2="536.0982" y1="923.4925" y2="923.4925"/><text fill="#000000" font-family="sans-serif" font-size="14" lengthAdjust="spacing" textLength="129.8281" x="390.9" y="940.4876">PathfinderRequest</text><text fill="#000000" font-family="sans-serif" font-size="14" lengthAdjust="spacing" textLength="140.1982" x="390.9" y="956.7845">PathfinderResponse</text><text fill="#000000" font-family="sans-serif" font-size="14" lengthAdjust="spacing" textLength="131.6807" x="390.9" y="973.0814">CompareResponse</text><text fill="#000000" font-family="sans-serif" font-size="14" lengthAdjust="spacing" textLength="121.8848" x="390.9" y="989.3782">OptionsResponse</text><text fill="#000000" font-family="sans-serif" font-size="14" lengthAdjust="spacing" textLength="108.3906" x="390.9" y="1005.6751">GraphSnapshot</text></g><!--link Server to rustBridge--><g class="link" data-entity-1="ent0003" data-entity-2="ent0004" data-link-type="dependency" data-source-line="105" id="lnk14"><path codeLine="105" d="M430.18,225.4369 C419.67,250.9069 410.4183,273.3404 400.9583,296.2704" fill="none" id="Server-to-rustBridge" style="stroke:#4A4A4A;stroke-width:1;"/><polygon fill="#4A4A4A" points="398.67,301.8169,405.8001,295.0226,400.5769,297.1948,398.4047,291.9716,398.67,301.8169" style="stroke:#4A4A4A;stroke-width:1;"/><text fill="#000000" font-family="sans-serif" font-size="13" lengthAdjust="spacing" textLength="84.5635" x="418" y="268.1138">primary path</text><text fill="#000000" font-family="sans-serif" font-size="13" lengthAdjust="spacing" textLength="8.271" x="418.9699" y="245.208">1</text><text fill="#000000" font-family="sans-serif" font-size="13" lengthAdjust="spacing" textLength="8.271" x="392.8921" y="290.9957">1</text></g><!--link Server to prototypeEngine--><g class="link" data-entity-1="ent0003" data-entity-2="ent0005" data-link-type="dependency" data-source-line="106" id="lnk15"><path codeLine="106" d="M511.17,225.4369 C530.21,252.3269 547.7632,277.1198 564.4632,300.7098" fill="none" id="Server-to-prototypeEngine" style="stroke:#4A4A4A;stroke-width:1;"/><polygon fill="#4A4A4A" points="567.93,305.6069,565.9946,295.9501,565.041,301.526,559.4651,300.5724,567.93,305.6069" style="stroke:#4A4A4A;stroke-width:1;"/><text fill="#000000" font-family="sans-serif" font-size="13" lengthAdjust="spacing" textLength="76.356" x="542" y="268.1138">legacy path</text><text fill="#000000" font-family="sans-serif" font-size="13" lengthAdjust="spacing" textLength="8.271" x="507.6792" y="245.208">1</text><text fill="#000000" font-family="sans-serif" font-size="13" lengthAdjust="spacing" textLength="24.8066" x="537.6635" y="294.9917">0..1</text></g><!--link rustBridge to MainRs--><g class="link" data-entity-1="ent0004" data-entity-2="ent0007" data-link-type="dependency" data-source-line="107" id="lnk16"><path codeLine="107" d="M379,399.3369 C379,429.1069 379,461.5269 379,492.6869" fill="none" id="rustBridge-to-MainRs" style="stroke:#4A4A4A;stroke-width:1;"/><polygon fill="#4A4A4A" points="379,498.6869,383,489.6869,379,493.6869,375,489.6869,379,498.6869" style="stroke:#4A4A4A;stroke-width:1;"/><text fill="#000000" font-family="sans-serif" font-size="13" lengthAdjust="spacing" textLength="58.9443" x="380" y="443.9738">executes</text><text fill="#000000" font-family="sans-serif" font-size="13" lengthAdjust="spacing" textLength="8.271" x="370.4802" y="418.9861">1</text><text fill="#000000" font-family="sans-serif" font-size="13" lengthAdjust="spacing" textLength="8.271" x="370.5287" y="487.9255">1</text></g><!--link MainRs to RustDTOs--><g class="link" data-entity-1="ent0007" data-entity-2="ent0013" data-link-type="dependency" data-source-line="108" id="lnk17"><path codeLine="108" d="M390.84,612.2969 C405.56,681.7169 429.4451,794.3274 445.2951,869.0574" fill="none" id="MainRs-to-RustDTOs" style="stroke:#4A4A4A;stroke-width:1;stroke-dasharray:7,7;"/><polygon fill="#4A4A4A" points="446.54,874.9269,448.5856,865.2928,445.5026,870.0357,440.7597,866.9527,446.54,874.9269" style="stroke:#4A4A4A;stroke-width:1;"/><text fill="#000000" font-family="sans-serif" font-size="13" lengthAdjust="spacing" textLength="116.2637" x="429" y="746.2138">parses / serializes</text></g><!--link MainRs to engine--><g class="link" data-entity-1="ent0007" data-entity-2="ent0008" data-link-type="dependency" data-source-line="109" id="lnk18"><path codeLine="109" d="M342.37,612.2469 C326.37,636.5869 311.0147,659.9624 295.3247,683.8424" fill="none" id="MainRs-to-engine" style="stroke:#4A4A4A;stroke-width:1;"/><polygon fill="#4A4A4A" points="292.03,688.8569,300.315,683.5316,294.7756,684.6781,293.629,679.1387,292.03,688.8569" style="stroke:#4A4A4A;stroke-width:1;"/><text fill="#000000" font-family="sans-serif" font-size="13" lengthAdjust="spacing" textLength="63.9463" x="323" y="655.1338">delegates</text><text fill="#000000" font-family="sans-serif" font-size="13" lengthAdjust="spacing" textLength="8.271" x="329.4344" y="632.1538">1</text><text fill="#000000" font-family="sans-serif" font-size="13" lengthAdjust="spacing" textLength="8.271" x="288.0835" y="677.8315">1</text></g><!--link engine to GraphState--><g class="link" data-entity-1="ent0008" data-entity-2="ent0009" data-link-type="dependency" data-source-line="110" id="lnk19"><path codeLine="110" d="M218.14,794.5269 C200.23,817.8469 182.4457,840.9892 163.0057,866.2892" fill="none" id="engine-to-GraphState" style="stroke:#4A4A4A;stroke-width:1;"/><polygon fill="#4A4A4A" points="159.35,871.0469,168.0054,866.3475,162.3964,867.0821,161.6618,861.4732,159.35,871.0469" style="stroke:#4A4A4A;stroke-width:1;"/><text fill="#000000" font-family="sans-serif" font-size="13" lengthAdjust="spacing" textLength="29.7832" x="196" y="837.2938">uses</text><text fill="#000000" font-family="sans-serif" font-size="13" lengthAdjust="spacing" textLength="8.271" x="204.5378" y="814.3387">1</text><text fill="#000000" font-family="sans-serif" font-size="13" lengthAdjust="spacing" textLength="8.271" x="156.4183" y="860.1907">1</text></g><!--link engine to SearchResult--><g class="link" data-entity-1="ent0008" data-entity-2="ent0012" data-link-type="dependency" data-source-line="111" id="lnk20"><path codeLine="111" d="M255.47,794.3069 C254.67,810.4969 254,824.2269 254,824.2269 C254,824.2269 254,841.2269 254,841.2269 C254,841.2269 259.8231,860.3568 267.4831,885.5268" fill="none" id="engine-to-SearchResult" style="stroke:#4A4A4A;stroke-width:1;stroke-dasharray:7,7;"/><polygon fill="#4A4A4A" points="269.23,891.2669,270.4364,881.4922,267.7743,886.4835,262.783,883.8214,269.23,891.2669" style="stroke:#4A4A4A;stroke-width:1;"/><text fill="#000000" font-family="sans-serif" font-size="13" lengthAdjust="spacing" textLength="65.7871" x="255" y="837.2938">consumes</text><text fill="#000000" font-family="sans-serif" font-size="13" lengthAdjust="spacing" textLength="8.271" x="258.7147" y="880.6127">1</text></g><!--link engine to RustDTOs--><g class="link" data-entity-1="ent0008" data-entity-2="ent0013" data-link-type="dependency" data-source-line="112" id="lnk21"><path codeLine="112" d="M310.54,794.5269 C335.33,819.0069 360.971,844.3208 387.571,870.5908" fill="none" id="engine-to-RustDTOs" style="stroke:#4A4A4A;stroke-width:1;stroke-dasharray:7,7;"/><polygon fill="#4A4A4A" points="391.84,874.8069,388.2472,865.6367,388.2825,871.2935,382.6257,871.3288,391.84,874.8069" style="stroke:#4A4A4A;stroke-width:1;"/><text fill="#000000" font-family="sans-serif" font-size="13" lengthAdjust="spacing" textLength="47.0361" x="354" y="837.2938">returns</text></g><!--reverse link GraphState to Neighbor--><g class="link" data-entity-1="ent0009" data-entity-2="ent0010" data-link-type="composition" data-source-line="113" id="lnk22"><path codeLine="113" d="M101.572,1029.4718 C100.852,1054.2918 100.41,1069.8069 99.73,1093.5569" fill="none" id="GraphState-backto-Neighbor" style="stroke:#4A4A4A;stroke-width:1;"/><polygon fill="#4A4A4A" points="101.92,1017.4769,97.7477,1023.3584,101.572,1029.4718,105.7443,1023.5903,101.92,1017.4769" style="stroke:#4A4A4A;stroke-width:1;"/><text fill="#000000" font-family="sans-serif" font-size="13" lengthAdjust="spacing" textLength="66.022" x="102" y="1060.0438">adjacency</text><text fill="#000000" font-family="sans-serif" font-size="13" lengthAdjust="spacing" textLength="8.271" x="93.3722" y="1037.0056">1</text><text fill="#000000" font-family="sans-serif" font-size="13" lengthAdjust="spacing" textLength="6.5" x="93.6179" y="1083.1228">*</text></g><!--reverse link GraphState to PairRelation--><g class="link" data-entity-1="ent0009" data-entity-2="ent0011" data-link-type="composition" data-source-line="114" id="lnk23"><path codeLine="114" d="M169.8171,1026.8226 C189.8071,1051.6426 204.43,1069.8069 223.56,1093.5569" fill="none" id="GraphState-backto-PairRelation" style="stroke:#4A4A4A;stroke-width:1;"/><polygon fill="#4A4A4A" points="162.29,1017.4769,162.9383,1024.6588,169.8171,1026.8226,169.1688,1019.6407,162.29,1017.4769" style="stroke:#4A4A4A;stroke-width:1;"/><text fill="#000000" font-family="sans-serif" font-size="13" lengthAdjust="spacing" textLength="85.4585" x="200" y="1060.0438">pairRelations</text><text fill="#000000" font-family="sans-serif" font-size="13" lengthAdjust="spacing" textLength="8.271" x="159.3075" y="1037.0056">1</text><text fill="#000000" font-family="sans-serif" font-size="13" lengthAdjust="spacing" textLength="6.5" x="211.9606" y="1083.1228">*</text></g><?plantuml-src fLLHRzCm47xlhx322p2r0uI4L4sJkdP3amQjsedNw9hS4W_7DcU74H3_dNESqYJRn0F9GtFdytttsTzTlVGAnGPyUITrZYHkO2-M2fmJAma5GJMPkAzIM-1FiOViQq6crldIA4FYePGUU-kkXDmyI5s8Er2klwAaHjzO5DQe9XYzDSjPeS2TRxWKmio3BjGWhKT24xOlBqOLlBXw7zvdWWqnfIxmmoAylS2iPVbh8iJ5axJOtz__VX5UzYw8pCFOUMMqxtplscVo-p739y5UN5s4TmpteNsUoJmv94n2DjHvqgQEZ1A7z1rfTkyI0KxiMakSdLt-i8IyljXSdv-tyK9Cf-qFeLNGhFRHg9tVehD6Ern2Lc8_ykJZvQqu1IjFxL_DJCEEKsEzv2qnQhFUFHD6jVvNI6OgFhO0oqmFhCBA1ScSIP-TVJOvYcWzei9n6pBtBAELfBa8oGS4y0TcjSSjnorDLO7ENxuQGbaolXNGfIvOgOntWmLaZOZs6F64AUqGA2lRHEpe22nKOKZwid8TGl_Y0hvO6iB1rLKWzOpYnNtYxwrZzENDDKDxQgoHse_XiqXYBdQUkFC6bOLqXw888K-TppjFZoyUQAwP0pfFu0qznJ9rJz5COSYJLpejfDJ9Q8puaS2MEmy-eAvCA5DyuZjLOrJDphG2sngGtqE6EcjQou8a1b1mb5qE7XpwGTdxMgeyBG8WisV4SIsVKHRbteGE-GAgHh7U1_6CAv5vh46f9dq8Mo8C2mKKL-Z3oSKYJ2KrQF-tjY7SXilUTYl_W1nZeSRg_y2ZJBcvQ-KP_5hphDIWHFICyU_2aEhEsfTfk8k8ybqw7f1vcd607o8aLRX6nneMgzjr57AGUZ32NT-k-V9DRSTOnt-WBNwhMOIFl559hNiPXJVmhQFa1hueCmtMbSOVEh2RXydRXB7Fsz_URE61GR82QkBW60U_cStuSpmWvaB50T7kwMNhWtJjF1VT07AJpZERdH-FA0miSkZ4gU0nBa79dyV8VZeyGFDnCtZ8rxdwKRr6culQ7OC2Q0WOA6BEmqIxkXg6zMeZz3Lni_NIXYIlfrEHl4wEhJJlzUepiOC-cBVTV33T7m00?></g></svg>