<svg xmlns="http://www.w3.org/2000/svg" xmlns:xlink="http://www.w3.org/1999/xlink" contentStyleType="text/css" data-diagram-type="DESCRIPTION" height="792px" preserveAspectRatio="none" style="width:1895px;height:792px;background:#FFFFFF;" version="1.1" viewBox="0 0 1895 792" width="1895px" zoomAndPan="magnify"><?plantuml 1.2026.3beta5?><defs/><g><!--cluster FE--><g class="cluster" data-qualified-name="FE" data-source-line="7" id="ent0003"><path d="M241.63,6 L511.2277,6 A3.75,3.75 0 0 1 513.7277,8.5 L520.7277,28.2969 L1325.67,28.2969 A2.5,2.5 0 0 1 1328.17,30.7969 L1328.17,335.5 A2.5,2.5 0 0 1 1325.67,338 L241.63,338 A2.5,2.5 0 0 1 239.13,335.5 L239.13,8.5 A2.5,2.5 0 0 1 241.63,6" fill="none" style="stroke:#000000;stroke-width:1.5;"/><line style="stroke:#000000;stroke-width:1.5;" x1="239.13" x2="520.7277" y1="28.2969" y2="28.2969"/><text fill="#000000" font-family="sans-serif" font-size="14" font-weight="700" lengthAdjust="spacing" textLength="268.5977" x="243.13" y="20.9951">Pathfinder Frontend &#171;subsystem&#187;</text></g><!--cluster BE--><g class="cluster" data-qualified-name="BE" data-source-line="29" id="ent0020"><path d="M1117.17,362 L1381.7501,362 A3.75,3.75 0 0 1 1384.2501,364.5 L1391.2501,384.2969 L1877.89,384.2969 A2.5,2.5 0 0 1 1880.39,386.7969 L1880.39,661.5 A2.5,2.5 0 0 1 1877.89,664 L1117.17,664 A2.5,2.5 0 0 1 1114.67,661.5 L1114.67,364.5 A2.5,2.5 0 0 1 1117.17,362" fill="none" style="stroke:#000000;stroke-width:1.5;"/><line style="stroke:#000000;stroke-width:1.5;" x1="1114.67" x2="1391.2501" y1="384.2969" y2="384.2969"/><text fill="#000000" font-family="sans-serif" font-size="14" font-weight="700" lengthAdjust="spacing" textLength="263.5801" x="1118.67" y="376.9951">Pathfinder Backend &#171;subsystem&#187;</text></g><!--entity LabPage--><g class="entity" data-qualified-name="FE.LabPage" data-source-line="8" id="ent0004"><rect fill="#F1F1F1" height="46.2969" rx="2.5" ry="2.5" style="stroke:#181818;stroke-width:0.5;" width="172.1182" x="255.13" y="141.85"/><rect fill="#F1F1F1" height="10" style="stroke:#181818;stroke-width:0.5;" width="15" x="407.2482" y="146.85"/><rect fill="#F1F1F1" height="2" style="stroke:#181818;stroke-width:0.5;" width="4" x="405.2482" y="148.85"/><rect fill="#F1F1F1" height="2" style="stroke:#181818;stroke-width:0.5;" width="4" x="405.2482" y="152.85"/><text fill="#000000" font-family="sans-serif" font-size="14" lengthAdjust="spacing" textLength="132.1182" x="270.13" y="174.8451">PathfinderLabPage</text></g><!--entity UIModules--><g class="entity" data-qualified-name="FE.UIModules" data-source-line="9" id="ent0005"><rect fill="#F1F1F1" height="46.2969" rx="2.5" ry="2.5" style="stroke:#181818;stroke-width:0.5;" width="117.0273" x="592.25" y="222.85"/><rect fill="#F1F1F1" height="10" style="stroke:#181818;stroke-width:0.5;" width="15" x="689.2773" y="227.85"/><rect fill="#F1F1F1" height="2" style="stroke:#181818;stroke-width:0.5;" width="4" x="687.2773" y="229.85"/><rect fill="#F1F1F1" height="2" style="stroke:#181818;stroke-width:0.5;" width="4" x="687.2773" y="233.85"/><text fill="#000000" font-family="sans-serif" font-size="14" lengthAdjust="spacing" textLength="77.0273" x="607.25" y="255.8451">UI Modules</text></g><!--entity ApiClient--><g class="entity" data-qualified-name="FE.ApiClient" data-source-line="10" id="ent0006"><rect fill="#F1F1F1" height="46.2969" rx="2.5" ry="2.5" style="stroke:#181818;stroke-width:0.5;" width="107.1289" x="597.19" y="141.85"/><rect fill="#F1F1F1" height="10" style="stroke:#181818;stroke-width:0.5;" width="15" x="684.3189" y="146.85"/><rect fill="#F1F1F1" height="2" style="stroke:#181818;stroke-width:0.5;" width="4" x="682.3189" y="148.85"/><rect fill="#F1F1F1" height="2" style="stroke:#181818;stroke-width:0.5;" width="4" x="682.3189" y="152.85"/><text fill="#000000" font-family="sans-serif" font-size="14" lengthAdjust="spacing" textLength="67.1289" x="612.19" y="174.8451">API Client</text></g><!--entity MockEngine--><g class="entity" data-qualified-name="FE.MockEngine" data-source-line="11" id="ent0007"><rect fill="#F1F1F1" height="46.2969" rx="2.5" ry="2.5" style="stroke:#181818;stroke-width:0.5;" width="201.9023" x="1110.27" y="61.85"/><rect fill="#F1F1F1" height="10" style="stroke:#181818;stroke-width:0.5;" width="15" x="1292.1723" y="66.85"/><rect fill="#F1F1F1" height="2" style="stroke:#181818;stroke-width:0.5;" width="4" x="1290.1723" y="68.85"/><rect fill="#F1F1F1" height="2" style="stroke:#181818;stroke-width:0.5;" width="4" x="1290.1723" y="72.85"/><text fill="#000000" font-family="sans-serif" font-size="14" lengthAdjust="spacing" textLength="161.9023" x="1125.27" y="94.8451">Browser Replay Engine</text></g><!--entity REQ_Search--><g class="entity" data-qualified-name="FE.REQ_Search" data-source-line="13" id="ent0008"><ellipse cx="979.27" cy="107" fill="#F1F1F1" rx="8" ry="8" style="stroke:#181818;stroke-width:0.5;"/><text fill="#000000" font-family="sans-serif" font-size="14" lengthAdjust="spacing" textLength="125.8359" x="916.352" y="136.9951">Search / Compare</text></g><!--entity REQ_Metadata--><g class="entity" data-qualified-name="FE.REQ_Metadata" data-source-line="14" id="ent0009"><ellipse cx="979.27" cy="200" fill="#F1F1F1" rx="8" ry="8" style="stroke:#181818;stroke-width:0.5;"/><text fill="#000000" font-family="sans-serif" font-size="14" lengthAdjust="spacing" textLength="66.2949" x="946.1225" y="229.9951">Metadata</text></g><!--entity REQ_Replay--><g class="entity" data-qualified-name="FE.REQ_Replay" data-source-line="15" id="ent0010"><ellipse cx="979.27" cy="293" fill="#F1F1F1" rx="8" ry="8" style="stroke:#181818;stroke-width:0.5;"/><text fill="#000000" font-family="sans-serif" font-size="14" lengthAdjust="spacing" textLength="47.9814" x="955.2793" y="322.9951">Replay</text></g><!--entity ProtoRoutes--><g class="entity" data-qualified-name="BE.ProtoRoutes" data-source-line="30" id="ent0021"><rect fill="#F1F1F1" height="46.2969" rx="2.5" ry="2.5" style="stroke:#181818;stroke-width:0.5;" width="161.1055" x="1130.67" y="396.85"/><rect fill="#F1F1F1" height="10" style="stroke:#181818;stroke-width:0.5;" width="15" x="1271.7755" y="401.85"/><rect fill="#F1F1F1" height="2" style="stroke:#181818;stroke-width:0.5;" width="4" x="1269.7755" y="403.85"/><rect fill="#F1F1F1" height="2" style="stroke:#181818;stroke-width:0.5;" width="4" x="1269.7755" y="407.85"/><text fill="#000000" font-family="sans-serif" font-size="14" lengthAdjust="spacing" textLength="121.1055" x="1145.67" y="429.8451">Prototype Routes</text></g><!--entity RustRoutes--><g class="entity" data-qualified-name="BE.RustRoutes" data-source-line="31" id="ent0022"><rect fill="#F1F1F1" height="46.2969" rx="2.5" ry="2.5" style="stroke:#181818;stroke-width:0.5;" width="124.3965" x="1149.03" y="477.85"/><rect fill="#F1F1F1" height="10" style="stroke:#181818;stroke-width:0.5;" width="15" x="1253.4265" y="482.85"/><rect fill="#F1F1F1" height="2" style="stroke:#181818;stroke-width:0.5;" width="4" x="1251.4265" y="484.85"/><rect fill="#F1F1F1" height="2" style="stroke:#181818;stroke-width:0.5;" width="4" x="1251.4265" y="488.85"/><text fill="#000000" font-family="sans-serif" font-size="14" lengthAdjust="spacing" textLength="84.3965" x="1164.03" y="510.8451">Rust Routes</text></g><!--entity ReplayRoutes--><g class="entity" data-qualified-name="BE.ReplayRoutes" data-source-line="32" id="ent0023"><rect fill="#F1F1F1" height="46.2969" rx="2.5" ry="2.5" style="stroke:#181818;stroke-width:0.5;" width="140.9941" x="1596.7" y="396.85"/><rect fill="#F1F1F1" height="10" style="stroke:#181818;stroke-width:0.5;" width="15" x="1717.6941" y="401.85"/><rect fill="#F1F1F1" height="2" style="stroke:#181818;stroke-width:0.5;" width="4" x="1715.6941" y="403.85"/><rect fill="#F1F1F1" height="2" style="stroke:#181818;stroke-width:0.5;" width="4" x="1715.6941" y="407.85"/><text fill="#000000" font-family="sans-serif" font-size="14" lengthAdjust="spacing" textLength="100.9941" x="1611.7" y="429.8451">Replay Routes</text></g><!--entity ProtoEngine--><g class="entity" data-qualified-name="BE.ProtoEngine" data-source-line="33" id="ent0024"><rect fill="#F1F1F1" height="46.2969" rx="2.5" ry="2.5" style="stroke:#181818;stroke-width:0.5;" width="160.5244" x="1375.17" y="405.85"/><rect fill="#F1F1F1" height="10" style="stroke:#181818;stroke-width:0.5;" width="15" x="1515.6944" y="410.85"/><rect fill="#F1F1F1" height="2" style="stroke:#181818;stroke-width:0.5;" width="4" x="1513.6944" y="412.85"/><rect fill="#F1F1F1" height="2" style="stroke:#181818;stroke-width:0.5;" width="4" x="1513.6944" y="416.85"/><text fill="#000000" font-family="sans-serif" font-size="14" lengthAdjust="spacing" textLength="120.5244" x="1390.17" y="438.8451">Prototype Engine</text></g><!--entity RustBridge--><g class="entity" data-qualified-name="BE.RustBridge" data-source-line="34" id="ent0025"><rect fill="#F1F1F1" height="46.2969" rx="2.5" ry="2.5" style="stroke:#181818;stroke-width:0.5;" width="121.4707" x="1394.7" y="521.85"/><rect fill="#F1F1F1" height="10" style="stroke:#181818;stroke-width:0.5;" width="15" x="1496.1707" y="526.85"/><rect fill="#F1F1F1" height="2" style="stroke:#181818;stroke-width:0.5;" width="4" x="1494.1707" y="528.85"/><rect fill="#F1F1F1" height="2" style="stroke:#181818;stroke-width:0.5;" width="4" x="1494.1707" y="532.85"/><text fill="#000000" font-family="sans-serif" font-size="14" lengthAdjust="spacing" textLength="81.4707" x="1409.7" y="554.8451">Rust Bridge</text></g><!--entity RustBin--><g class="entity" data-qualified-name="BE.RustBin" data-source-line="35" id="ent0026"><rect fill="#F1F1F1" height="46.2969" rx="2.5" ry="2.5" style="stroke:#181818;stroke-width:0.5;" width="120.8213" x="1606.79" y="548.85"/><rect fill="#F1F1F1" height="10" style="stroke:#181818;stroke-width:0.5;" width="15" x="1707.6113" y="553.85"/><rect fill="#F1F1F1" height="2" style="stroke:#181818;stroke-width:0.5;" width="4" x="1705.6113" y="555.85"/><rect fill="#F1F1F1" height="2" style="stroke:#181818;stroke-width:0.5;" width="4" x="1705.6113" y="559.85"/><text fill="#000000" font-family="sans-serif" font-size="14" lengthAdjust="spacing" textLength="80.8213" x="1621.79" y="581.8451">Rust Binary</text></g><!--entity DB--><g class="entity" data-qualified-name="BE.DB" data-source-line="36" id="ent0027"><path d="M1798.69,483.35 C1798.69,473.35 1831.5391,473.35 1831.5391,473.35 C1831.5391,473.35 1864.3882,473.35 1864.3882,483.35 L1864.3882,508.6469 C1864.3882,518.6469 1831.5391,518.6469 1831.5391,518.6469 C1831.5391,518.6469 1798.69,518.6469 1798.69,508.6469 L1798.69,483.35" fill="#F1F1F1" style="stroke:#181818;stroke-width:0.5;"/><path d="M1798.69,483.35 C1798.69,493.35 1831.5391,493.35 1831.5391,493.35 C1831.5391,493.35 1864.3882,493.35 1864.3882,483.35" fill="none" style="stroke:#181818;stroke-width:0.5;"/><text fill="#000000" font-family="sans-serif" font-size="14" lengthAdjust="spacing" textLength="45.6982" x="1808.69" y="510.3451">SQLite</text></g><!--entity ProtoData--><g class="entity" data-qualified-name="BE.ProtoData" data-source-line="37" id="ent0028"><path d="M1603.67,480.35 L1603.67,511.6469 A2.5,2.5 0 0 0 1606.17,514.1469 L1728.2208,514.1469 A2.5,2.5 0 0 0 1730.7208,511.6469 L1730.7208,487.85 L1720.7208,477.85 L1606.17,477.85 A2.5,2.5 0 0 0 1603.67,480.35" fill="#F1F1F1" style="stroke:#181818;stroke-width:0.5;"/><path d="M1720.7208,477.85 L1720.7208,485.35 A2.5,2.5 0 0 0 1723.2208,487.85 L1730.7208,487.85" fill="#F1F1F1" style="stroke:#181818;stroke-width:0.5;"/><text fill="#000000" font-family="sans-serif" font-size="14" lengthAdjust="spacing" textLength="107.0508" x="1613.67" y="500.8451">Prototype JSON</text></g><!--entity PROV_Search--><g class="entity" data-qualified-name="BE.PROV_Search" data-source-line="39" id="ent0029"><ellipse cx="1211.22" cy="568" fill="#F1F1F1" rx="8" ry="8" style="stroke:#181818;stroke-width:0.5;"/><text fill="#000000" font-family="sans-serif" font-size="14" lengthAdjust="spacing" textLength="125.8359" x="1148.302" y="597.9951">Search / Compare</text></g><!--entity PROV_Metadata--><g class="entity" data-qualified-name="BE.PROV_Metadata" data-source-line="40" id="ent0030"><ellipse cx="1211.22" cy="621" fill="#F1F1F1" rx="8" ry="8" style="stroke:#181818;stroke-width:0.5;"/><text fill="#000000" font-family="sans-serif" font-size="14" lengthAdjust="spacing" textLength="66.2949" x="1178.0725" y="650.9951">Metadata</text></g><!--entity PROV_Replay--><g class="entity" data-qualified-name="BE.PROV_Replay" data-source-line="41" id="ent0031"><ellipse cx="1667.2" cy="639" fill="#F1F1F1" rx="8" ry="8" style="stroke:#181818;stroke-width:0.5;"/><text fill="#000000" font-family="sans-serif" font-size="14" lengthAdjust="spacing" textLength="47.9814" x="1643.2093" y="668.9951">Replay</text></g><!--entity User--><g class="entity" data-qualified-name="User" data-source-line="5" id="ent0002"><ellipse cx="78.5635" cy="135.35" fill="#F1F1F1" rx="8" ry="8" style="stroke:#181818;stroke-width:0.5;"/><path d="M78.5635,143.35 L78.5635,170.35 M65.5635,151.35 L91.5635,151.35 M78.5635,170.35 L65.5635,185.35 M78.5635,170.35 L91.5635,185.35" fill="none" style="stroke:#181818;stroke-width:0.5;"/><text fill="#000000" font-family="sans-serif" font-size="14" lengthAdjust="spacing" textLength="145.127" x="6" y="199.8451">Researcher / Analyst</text></g><!--link User to LabPage--><g class="link" data-entity-1="ent0002" data-entity-2="ent0004" data-link-type="dependency" data-source-line="17" id="lnk11"><path d="M151.47,165 C183.41,165 215.26,165 248.64,165" fill="none" id="User-to-LabPage" style="stroke:#181818;stroke-width:1;"/><polygon fill="#181818" points="254.64,165,245.64,161,249.64,165,245.64,169,254.64,165" style="stroke:#181818;stroke-width:1;"/><text fill="#000000" font-family="sans-serif" font-size="13" lengthAdjust="spacing" textLength="40.9424" x="182.13" y="161.0669">Lab UI</text></g><!--link LabPage to UIModules--><g class="link" data-entity-1="ent0004" data-entity-2="ent0005" data-link-type="dependency" data-source-line="18" id="lnk12"><path d="M427.45,187.45 C479.9,201.26 539.9079,217.0719 586.2679,229.2819" fill="none" id="LabPage-to-UIModules" style="stroke:#181818;stroke-width:1;"/><polygon fill="#181818" points="592.07,230.81,584.3855,224.6497,587.2349,229.5366,582.348,232.3859,592.07,230.81" style="stroke:#181818;stroke-width:1;"/></g><!--link LabPage to ApiClient--><g class="link" data-entity-1="ent0004" data-entity-2="ent0006" data-link-type="dependency" data-source-line="19" id="lnk13"><path d="M427.45,165 C481.68,165 544.19,165 590.72,165" fill="none" id="LabPage-to-ApiClient" style="stroke:#181818;stroke-width:1;"/><polygon fill="#181818" points="596.72,165,587.72,161,591.72,165,587.72,169,596.72,165" style="stroke:#181818;stroke-width:1;"/><text fill="#000000" font-family="sans-serif" font-size="13" lengthAdjust="spacing" textLength="103.1558" x="458.25" y="161.0669">backend modes</text></g><!--link LabPage to MockEngine--><g class="link" data-entity-1="ent0004" data-entity-2="ent0007" data-link-type="dependency" data-source-line="20" id="lnk14"><path d="M421.57,141.39 C551.95,105.28 819.9,42.29 1049.27,60 C1069.01,61.52 1084.0526,63.2157 1104.1126,66.1357" fill="none" id="LabPage-to-MockEngine" style="stroke:#181818;stroke-width:1;"/><polygon fill="#181818" points="1110.05,67,1101.72,61.7453,1105.1021,66.2798,1100.5677,69.6619,1110.05,67" style="stroke:#181818;stroke-width:1;"/><text fill="#000000" font-family="sans-serif" font-size="13" lengthAdjust="spacing" textLength="138.2583" x="740.27" y="56.0669">frontend-demo mode</text></g><!--link ApiClient to REQ_Search--><g class="link" data-entity-1="ent0006" data-entity-2="ent0008" data-source-line="22" id="lnk15"><path d="M704.58,155.61 C785.44,141.25 924.4942,116.5496 960.4542,110.1596" fill="none" id="ApiClient-to-REQ_Search" style="stroke:#181818;stroke-width:1;"/><path d="M965.7896,100.6218 A9,9 0 0 0 968.7489 117.2753" fill="none" style="stroke:#181818;stroke-width:1.5;"/></g><!--link ApiClient to REQ_Metadata--><g class="link" data-entity-1="ent0006" data-entity-2="ent0009" data-source-line="23" id="lnk16"><path d="M704.58,170.66 C785.44,179.33 924.3968,194.2254 960.3568,198.0754" fill="none" id="ApiClient-to-REQ_Metadata" style="stroke:#181818;stroke-width:1;"/><path d="M968.1396,190.4031 A9,9 0 0 0 966.339 207.2215" fill="none" style="stroke:#181818;stroke-width:1.5;"/></g><!--link ApiClient to REQ_Replay--><g class="link" data-entity-1="ent0006" data-entity-2="ent0010" data-source-line="24" id="lnk17"><path d="M704.58,185.7 C785.44,217.4 925.0301,272.1196 960.9901,286.2196" fill="none" id="ApiClient-to-REQ_Replay" style="stroke:#181818;stroke-width:1;"/><path d="M970.5215,280.8727 A9,9 0 0 0 964.347 296.6199" fill="none" style="stroke:#181818;stroke-width:1.5;"/></g><!--link REQ_Search to MockEngine--><g class="link" data-entity-1="ent0008" data-entity-2="ent0007" data-link-type="association" data-source-line="26" id="lnk19"><path d="M988.19,106.24 C1007.81,104.36 1060.69,99.3 1109.92,94.59" fill="none" id="REQ_Search-MockEngine" style="stroke:#181818;stroke-width:1;"/></g><!--link PROV_Search to ProtoRoutes--><g class="link" data-entity-1="ent0029" data-entity-2="ent0021" data-link-type="association" data-source-line="43" id="lnk32"><path d="M1201.92,568.62 C1175.93,569.77 1102.87,568.85 1077.97,524.5 C1067.74,506.28 1067.74,495.71 1077.97,477.5 C1089.2,457.5 1109.28,444.46 1130.5,435.95" fill="none" id="PROV_Search-ProtoRoutes" style="stroke:#181818;stroke-width:1;"/></g><!--link PROV_Search to RustRoutes--><g class="link" data-entity-1="ent0029" data-entity-2="ent0022" data-link-type="association" data-source-line="44" id="lnk33"><path d="M1211.22,558.57 C1211.22,547.18 1211.22,535.78 1211.22,524.39" fill="none" id="PROV_Search-RustRoutes" style="stroke:#181818;stroke-width:1;"/></g><!--link PROV_Metadata to ProtoRoutes--><g class="link" data-entity-1="ent0030" data-entity-2="ent0021" data-link-type="association" data-source-line="45" id="lnk34"><path d="M1201.92,621.54 C1175.95,622.48 1102.93,620.94 1077.97,576.5 C1056.43,538.13 1056.43,515.86 1077.97,477.5 C1089.2,457.5 1109.28,444.46 1130.5,435.95" fill="none" id="PROV_Metadata-ProtoRoutes" style="stroke:#181818;stroke-width:1;"/></g><!--link PROV_Metadata to RustRoutes--><g class="link" data-entity-1="ent0030" data-entity-2="ent0022" data-link-type="association" data-source-line="46" id="lnk35"><path d="M1201.92,621.54 C1175.95,622.48 1102.93,620.94 1077.97,576.5 C1058.84,542.42 1105.61,522.58 1148.92,511.87" fill="none" id="PROV_Metadata-RustRoutes" style="stroke:#181818;stroke-width:1;"/></g><!--link PROV_Replay to ReplayRoutes--><g class="link" data-entity-1="ent0031" data-entity-2="ent0023" data-link-type="association" data-source-line="47" id="lnk36"><path d="M1657.88,638.43 C1636.72,636.58 1585.43,628.7 1566.2,595.5 C1539.92,550.11 1539.92,522.88 1566.2,477.5 C1574.54,463.09 1588,452 1602.4,443.58" fill="none" id="PROV_Replay-ReplayRoutes" style="stroke:#181818;stroke-width:1;"/></g><!--link ProtoRoutes to ProtoEngine--><g class="link" data-entity-1="ent0021" data-entity-2="ent0024" data-link-type="dependency" data-source-line="49" id="lnk37"><path d="M1292.2,422.97 C1318.8,423.96 1342.4041,424.8387 1368.9541,425.8187" fill="none" id="ProtoRoutes-to-ProtoEngine" style="stroke:#181818;stroke-width:1;"/><polygon fill="#181818" points="1374.95,426.04,1366.1037,421.7107,1369.9534,425.8556,1365.8086,429.7053,1374.95,426.04" style="stroke:#181818;stroke-width:1;"/></g><!--link RustRoutes to RustBridge--><g class="link" data-entity-1="ent0022" data-entity-2="ent0025" data-link-type="dependency" data-source-line="50" id="lnk38"><path d="M1273.66,512.16 C1310.66,518.88 1351.6667,526.3273 1388.4267,533.0073" fill="none" id="RustRoutes-to-RustBridge" style="stroke:#181818;stroke-width:1;"/><polygon fill="#181818" points="1394.33,534.08,1386.1902,528.5353,1389.4106,533.186,1384.7599,536.4064,1394.33,534.08" style="stroke:#181818;stroke-width:1;"/></g><!--link ReplayRoutes to DB--><g class="link" data-entity-1="ent0023" data-entity-2="ent0027" data-link-type="dependency" data-source-line="51" id="lnk39"><path d="M1718.67,443.63 C1744.74,455.83 1770.316,467.8062 1793.066,478.4562" fill="none" id="ReplayRoutes-to-DB" style="stroke:#181818;stroke-width:1;"/><polygon fill="#181818" points="1798.5,481,1792.0448,473.5615,1793.9716,478.8801,1788.653,480.8069,1798.5,481" style="stroke:#181818;stroke-width:1;"/></g><!--link ProtoEngine to ProtoData--><g class="link" data-entity-1="ent0024" data-entity-2="ent0028" data-link-type="dependency" data-source-line="53" id="lnk40"><path d="M1530.39,452.62 C1555.87,460.76 1578.3048,467.9234 1602.3348,475.6034" fill="none" id="ProtoEngine-to-ProtoData" style="stroke:#181818;stroke-width:1;"/><polygon fill="#181818" points="1608.05,477.43,1600.6949,470.88,1603.2873,475.9078,1598.2595,478.5003,1608.05,477.43" style="stroke:#181818;stroke-width:1;"/></g><!--link RustBridge to RustBin--><g class="link" data-entity-1="ent0025" data-entity-2="ent0026" data-link-type="dependency" data-source-line="54" id="lnk41"><path d="M1516.55,552.73 C1544.75,556.36 1572.3292,559.9129 1600.4892,563.5429" fill="none" id="RustBridge-to-RustBin" style="stroke:#181818;stroke-width:1;"/><polygon fill="#181818" points="1606.44,564.31,1598.0253,559.1922,1601.481,563.6708,1597.0025,567.1265,1606.44,564.31" style="stroke:#181818;stroke-width:1;"/></g><!--link RustBin to DB--><g class="link" data-entity-1="ent0026" data-entity-2="ent0027" data-link-type="dependency" data-source-line="55" id="lnk42"><path d="M1718.67,548.37 C1744.74,536.17 1770.316,524.1938 1793.066,513.5438" fill="none" id="RustBin-to-DB" style="stroke:#181818;stroke-width:1;"/><polygon fill="#181818" points="1798.5,511,1788.653,511.1931,1793.9716,513.1199,1792.0448,518.4385,1798.5,511" style="stroke:#181818;stroke-width:1;"/></g><!--link REQ_Search to PROV_Search--><g class="link" data-entity-1="ent0008" data-entity-2="ent0029" data-link-type="association" data-source-line="58" id="lnk43"><path d="M987.82,109.63 C1002.41,115.15 1034.33,129.4 1049.27,153 C1096.03,226.81 1048.03,477.21 1106.67,542 C1131.92,569.89 1182.24,569.9 1201.99,568.7" fill="none" id="REQ_Search-PROV_Search" style="stroke:#181818;stroke-width:1;"/></g><!--link REQ_Metadata to PROV_Metadata--><g class="link" data-entity-1="ent0009" data-entity-2="ent0030" data-link-type="association" data-source-line="59" id="lnk44"><path d="M988.24,202.83 C1002.97,208.51 1034.28,222.77 1049.27,246 C1091.77,311.85 1053.84,536.1 1106.67,594 C1132.09,621.86 1182.31,622.51 1202.01,621.59" fill="none" id="REQ_Metadata-PROV_Metadata" style="stroke:#181818;stroke-width:1;"/></g><!--link REQ_Replay to PROV_Replay--><g class="link" data-entity-1="ent0010" data-entity-2="ent0031" data-link-type="association" data-source-line="60" id="lnk45"><path d="M980.11,301.7 C979.81,347.45 985.05,561.28 1106.67,647 C1291.7,777.4 1603.42,663.8 1657.94,642.34" fill="none" id="REQ_Replay-PROV_Replay" style="stroke:#181818;stroke-width:1;"/></g><?plantuml-src VPDDQzj048Rl-XM3Jkb157eimM353hZ4ZIFZNae9OsbbBvPsnUwA84h_U_TBsbMLvgQPPpvsPburf5QWE0XwkIgeg22befmbyaPPXm9RA7dRSKQOEggX8T2tpPU8oYjM_8so2zJOI98aM2ek82s892ZAAn7m6TOCcq6g5532IHAH91sMDxmGI0-ehZLbbOvx59mfmYgulvVzMUe4qgvMDkbn2xyJW9yX-WdF1rtWbw7-smISTh3dLTyGQSbfvot3reSTF3HKJsBPkgFECYmN_4q_30hIDJZ0bbqeSyNtlBmvCz61TvyWFTh1z5WFUZCeY7rXiNrvTS17xOd22XLET7HuxZfDr9ccXLaGPDbg70k-cYyzYcQZo-1ujjW_pQKJpthDPgCjhnPnOJ0TMFlTPnLfkGqtJmcbiknkFk8IHVCjOHWlQflrNHPN_VE-Bd8_n58M-IWBmHLNGqUWuBtojxTEPvkOefSgniQEgBjxpAqdH8GUaJYiqwjZx94BMdbX6jkPWLA6OWYKCetCsiuezTZ7boUgdA8skIOrRSmofjxVZi_Vqwdpngpx8rKUYkSV7yZIul_hqk9mkQWOPF-iTyvckvqrUJyneijKVvfiVX53Go4hwFanGY4BPwU8ArcgTpqM7BKv5jourOJyKCxUpd-DPRI6WwArStQ2-3UPsBJ_y9zCp9b_0G00?></g></svg>