<?plantuml 1.2026.2beta3?><svg xmlns="http://www.w3.org/2000/svg" xmlns:xlink="http://www.w3.org/1999/xlink" contentStyleType="text/css" data-diagram-type="DESCRIPTION" height="435px" preserveAspectRatio="none" style="width:1464px;height:435px;background:#FFFFFF;" version="1.1" viewBox="0 0 1464 435" width="1464px" zoomAndPan="magnify"><defs/><g><!--entity User--><g class="entity" data-qualified-name="User" data-source-line="6" id="ent0002"><ellipse cx="37.4829" cy="361.9159" fill="#F1F1F1" rx="8" ry="8" style="stroke:#181818;stroke-width:0.5;"/><path d="M37.4829,369.9159 L37.4829,396.9159 M24.4829,377.9159 L50.4829,377.9159 M37.4829,396.9159 L24.4829,411.9159 M37.4829,396.9159 L50.4829,411.9159" fill="none" style="stroke:#181818;stroke-width:0.5;"/><text fill="#000000" font-family="sans-serif" font-size="14" lengthAdjust="spacing" textLength="62.9658" x="6" y="426.411">End User</text></g><!--entity Researcher--><g class="entity" data-qualified-name="Researcher" data-source-line="7" id="ent0003"><ellipse cx="1389.4033" cy="14.9159" fill="#F1F1F1" rx="8" ry="8" style="stroke:#181818;stroke-width:0.5;"/><path d="M1389.4033,22.9159 L1389.4033,49.9159 M1376.4033,30.9159 L1402.4033,30.9159 M1389.4033,49.9159 L1376.4033,64.9159 M1389.4033,49.9159 L1402.4033,64.9159" fill="none" style="stroke:#181818;stroke-width:0.5;"/><text fill="#000000" font-family="sans-serif" font-size="14" lengthAdjust="spacing" textLength="136.2266" x="1321.29" y="79.411">Researcher/Analyst</text></g><!--entity Riot--><g class="entity" data-qualified-name="Riot" data-source-line="8" id="ent0004"><ellipse cx="664.0953" cy="299.9159" fill="#F1F1F1" rx="8" ry="8" style="stroke:#181818;stroke-width:0.5;"/><path d="M664.0953,307.9159 L664.0953,334.9159 M651.0953,315.9159 L677.0953,315.9159 M664.0953,334.9159 L651.0953,349.9159 M664.0953,334.9159 L677.0953,349.9159" fill="none" style="stroke:#181818;stroke-width:0.5;"/><text fill="#000000" font-family="sans-serif" font-size="14" lengthAdjust="spacing" textLength="54.2705" x="636.96" y="364.411">Riot API</text></g><!--entity OpenRouter--><g class="entity" data-qualified-name="OpenRouter" data-source-line="9" id="ent0005"><ellipse cx="1389.4078" cy="126.9159" fill="#F1F1F1" rx="8" ry="8" style="stroke:#181818;stroke-width:0.5;"/><path d="M1389.4078,134.9159 L1389.4078,161.9159 M1376.4078,142.9159 L1402.4078,142.9159 M1389.4078,161.9159 L1376.4078,176.9159 M1389.4078,161.9159 L1402.4078,176.9159" fill="none" style="stroke:#181818;stroke-width:0.5;"/><text fill="#000000" font-family="sans-serif" font-size="14" lengthAdjust="spacing" textLength="111.0156" x="1333.9" y="191.411">OpenRouter API</text></g><!--entity P1--><g class="entity" data-qualified-name="P1" data-source-line="11" id="ent0006"><rect fill="#F1F1F1" height="52.5938" rx="2.5" ry="2.5" style="stroke:#181818;stroke-width:0.5;" width="142.6572" x="236.97" y="266.2659"/><text fill="#000000" font-family="sans-serif" font-size="14" lengthAdjust="spacing" textLength="122.6572" x="246.97" y="289.261">1. Match Analysis</text><text fill="#000000" font-family="sans-serif" font-size="14" lengthAdjust="spacing" textLength="85.5654" x="246.97" y="305.5579">and Storage</text></g><!--entity P2--><g class="entity" data-qualified-name="P2" data-source-line="12" id="ent0007"><rect fill="#F1F1F1" height="52.5938" rx="2.5" ry="2.5" style="stroke:#181818;stroke-width:0.5;" width="173.7266" x="948.57" y="273.2659"/><text fill="#000000" font-family="sans-serif" font-size="14" lengthAdjust="spacing" textLength="91.54" x="958.57" y="296.261">2. Graph and</text><text fill="#000000" font-family="sans-serif" font-size="14" lengthAdjust="spacing" textLength="153.7266" x="958.57" y="312.5579">Normalization Service</text></g><!--entity P3--><g class="entity" data-qualified-name="P3" data-source-line="13" id="ent0008"><rect fill="#F1F1F1" height="52.5938" rx="2.5" ry="2.5" style="stroke:#181818;stroke-width:0.5;" width="160.0957" x="955.38" y="74.2659"/><text fill="#000000" font-family="sans-serif" font-size="14" lengthAdjust="spacing" textLength="82.9609" x="965.38" y="97.261">3. Research</text><text fill="#000000" font-family="sans-serif" font-size="14" lengthAdjust="spacing" textLength="140.0957" x="965.38" y="113.5579">Enrichment Pipeline</text></g><!--entity D1--><g class="entity" data-qualified-name="D1" data-source-line="15" id="ent0009"><path d="M578.62,204.7659 C578.62,194.7659 664.0922,194.7659 664.0922,194.7659 C664.0922,194.7659 749.5643,194.7659 749.5643,204.7659 L749.5643,246.3597 C749.5643,256.3597 664.0922,256.3597 664.0922,256.3597 C664.0922,256.3597 578.62,256.3597 578.62,246.3597 L578.62,204.7659" fill="#F1F1F1" style="stroke:#181818;stroke-width:0.5;"/><path d="M578.62,204.7659 C578.62,214.7659 664.0922,214.7659 664.0922,214.7659 C664.0922,214.7659 749.5643,214.7659 749.5643,204.7659" fill="none" style="stroke:#181818;stroke-width:0.5;"/><text fill="#000000" font-family="sans-serif" font-size="14" lengthAdjust="spacing" textLength="150.9443" x="588.62" y="231.761">D1. Match Data Store</text><text fill="#000000" font-family="sans-serif" font-size="14" lengthAdjust="spacing" textLength="127.2236" x="588.62" y="248.0579">(JSON match files)</text></g><!--entity D2--><g class="entity" data-qualified-name="D2" data-source-line="16" id="ent0010"><path d="M582.39,107.7659 C582.39,97.7659 664.0921,97.7659 664.0921,97.7659 C664.0921,97.7659 745.7943,97.7659 745.7943,107.7659 L745.7943,149.3597 C745.7943,159.3597 664.0921,159.3597 664.0921,159.3597 C664.0921,159.3597 582.39,159.3597 582.39,149.3597 L582.39,107.7659" fill="#F1F1F1" style="stroke:#181818;stroke-width:0.5;"/><path d="M582.39,107.7659 C582.39,117.7659 664.0921,117.7659 664.0921,117.7659 C664.0921,117.7659 745.7943,117.7659 745.7943,107.7659" fill="none" style="stroke:#181818;stroke-width:0.5;"/><text fill="#000000" font-family="sans-serif" font-size="14" lengthAdjust="spacing" textLength="143.4043" x="592.39" y="134.761">D2. Player Database</text><text fill="#000000" font-family="sans-serif" font-size="14" lengthAdjust="spacing" textLength="56.6221" x="592.39" y="151.0579">(SQLite)</text></g><!--link User to P1--><g class="link" data-entity-1="ent0002" data-entity-2="ent0006" data-link-type="dependency" data-source-line="18" id="lnk11"><path d="M69.43,359.8459 C84.31,344.5859 98.97,329.5659 98.97,329.5659 C98.97,329.5659 170.1725,316.9255 230.5625,306.1955" fill="none" id="User-to-P1" style="stroke:#181818;stroke-width:1;"/><polygon fill="#181818" points="236.47,305.1459,226.909,302.782,231.5471,306.0206,228.3085,310.6587,236.47,305.1459" style="stroke:#181818;stroke-width:1;"/><text fill="#000000" font-family="sans-serif" font-size="13" lengthAdjust="spacing" textLength="47.8042" x="129.3025" y="276.6328">Riot ID,</text><text fill="#000000" font-family="sans-serif" font-size="13" lengthAdjust="spacing" textLength="41.1455" x="132.6319" y="291.7656">filters,</text><text fill="#000000" font-family="sans-serif" font-size="13" lengthAdjust="spacing" textLength="106.4692" x="99.97" y="306.8984">analysis request</text></g><!--link P1 to User--><g class="link" data-entity-1="ent0006" data-entity-2="ent0002" data-link-type="dependency" data-source-line="19" id="lnk12"><path d="M272.49,319.2859 C243.51,341.5259 206.97,369.5659 206.97,369.5659 C206.97,369.5659 123.9695,380.409 75.3395,386.759" fill="none" id="P1-to-User" style="stroke:#181818;stroke-width:1;"/><polygon fill="#181818" points="69.39,387.5359,78.8322,390.3369,74.3479,386.8885,77.7963,382.4043,69.39,387.5359" style="stroke:#181818;stroke-width:1;"/><text fill="#000000" font-family="sans-serif" font-size="13" lengthAdjust="spacing" textLength="97.8809" x="104.47" y="350.6328">match analysis</text><text fill="#000000" font-family="sans-serif" font-size="13" lengthAdjust="spacing" textLength="43.8369" x="131.492" y="365.7656">results</text></g><!--link User to P2--><g class="link" data-entity-1="ent0002" data-entity-2="ent0007" data-link-type="dependency" data-source-line="21" id="lnk13"><path d="M69.39,391.3859 C118.02,391.0959 206.97,390.5659 206.97,390.5659 C206.97,390.5659 749.57,385.5659 749.57,385.5659 C749.57,385.5659 858.606,352.6499 942.446,327.3399" fill="none" id="User-to-P2" style="stroke:#181818;stroke-width:1;"/><polygon fill="#181818" points="948.19,325.6059,938.418,324.3776,943.4034,327.0509,940.7301,332.0363,948.19,325.6059" style="stroke:#181818;stroke-width:1;"/><text fill="#000000" font-family="sans-serif" font-size="13" lengthAdjust="spacing" textLength="125.9565" x="416.62" y="382.6328">graph view request</text></g><!--link P2 to User--><g class="link" data-entity-1="ent0007" data-entity-2="ent0002" data-link-type="dependency" data-source-line="37" id="lnk24"><path d="M997.77,326.1459 C963.83,350.7559 918.57,383.5659 918.57,383.5659 C918.57,383.5659 548.62,428.5659 548.62,428.5659 C548.62,428.5659 409.62,428.5659 409.62,428.5659 C409.62,428.5659 98.97,398.5659 98.97,398.5659 C98.97,398.5659 90.2699,397.5688 75.3899,395.8388" fill="none" id="P2-to-User" style="stroke:#181818;stroke-width:1;"/><polygon fill="#181818" points="69.43,395.1459,77.9078,400.1585,74.3965,395.7233,78.8317,392.2121,69.43,395.1459" style="stroke:#181818;stroke-width:1;"/><text fill="#000000" font-family="sans-serif" font-size="13" lengthAdjust="spacing" textLength="109.332" x="424.62" y="409.6328">generated graph</text><text fill="#000000" font-family="sans-serif" font-size="13" lengthAdjust="spacing" textLength="29.9355" x="464.3182" y="424.7656">view</text></g><!--link Researcher to P3--><g class="link" data-entity-1="ent0003" data-entity-2="ent0008" data-link-type="dependency" data-source-line="23" id="lnk14"><path d="M1320.96,65.4059 C1304.39,70.5259 1291.29,74.5659 1291.29,74.5659 C1291.29,74.5659 1196.459,84.2472 1121.639,91.8772" fill="none" id="Researcher-to-P3" style="stroke:#181818;stroke-width:1;"/><polygon fill="#181818" points="1115.67,92.4859,1125.0294,95.5522,1120.6442,91.9787,1124.2178,87.5935,1115.67,92.4859" style="stroke:#181818;stroke-width:1;"/><text fill="#000000" font-family="sans-serif" font-size="13" lengthAdjust="spacing" textLength="112.5186" x="1165.79" y="55.6328">research pipeline</text><text fill="#000000" font-family="sans-serif" font-size="13" lengthAdjust="spacing" textLength="49.7021" x="1197.1982" y="70.7656">request</text></g><!--link P3 to Researcher--><g class="link" data-entity-1="ent0008" data-entity-2="ent0003" data-link-type="dependency" data-source-line="24" id="lnk15"><path d="M1086.24,73.9159 C1117.64,57.1059 1152.29,38.5659 1152.29,38.5659 C1152.29,38.5659 1291.29,38.5659 1291.29,38.5659 C1291.29,38.5659 1298.4013,39.0073 1314.9713,40.0273" fill="none" id="P3-to-Researcher" style="stroke:#181818;stroke-width:1;"/><polygon fill="#181818" points="1320.96,40.3959,1312.2228,35.8505,1315.9694,40.0887,1311.7312,43.8354,1320.96,40.3959" style="stroke:#181818;stroke-width:1;"/><text fill="#000000" font-family="sans-serif" font-size="13" lengthAdjust="spacing" textLength="137.5791" x="1153.29" y="19.6328">country/performance</text><text fill="#000000" font-family="sans-serif" font-size="13" lengthAdjust="spacing" textLength="61.3438" x="1191.4077" y="34.7656">summary</text></g><!--link P1 to Riot--><g class="link" data-entity-1="ent0006" data-entity-2="ent0004" data-link-type="dependency" data-source-line="26" id="lnk16"><path d="M380.04,299.9659 C459.09,308.2359 577.0525,320.5719 630.7925,326.1919" fill="none" id="P1-to-Riot" style="stroke:#181818;stroke-width:1;"/><polygon fill="#181818" points="636.76,326.8159,628.2249,321.9015,631.7871,326.2959,627.3928,329.8581,636.76,326.8159" style="stroke:#181818;stroke-width:1;"/><text fill="#000000" font-family="sans-serif" font-size="13" lengthAdjust="spacing" textLength="66.8154" x="445.9437" y="283.6328">account +</text><text fill="#000000" font-family="sans-serif" font-size="13" lengthAdjust="spacing" textLength="93.4629" x="432.62" y="298.7656">match queries</text></g><!--link Riot to P1--><g class="link" data-entity-1="ent0004" data-entity-2="ent0006" data-link-type="dependency" data-source-line="27" id="lnk17"><path d="M636.55,332.1159 C602.73,335.3659 548.62,340.5659 548.62,340.5659 C548.62,340.5659 409.62,340.5659 409.62,340.5659 C409.62,340.5659 393.5426,332.8751 370.4426,321.8251" fill="none" id="Riot-to-P1" style="stroke:#181818;stroke-width:1;"/><polygon fill="#181818" points="365.03,319.2359,371.4228,326.728,369.5405,321.3935,374.875,319.5112,365.03,319.2359" style="stroke:#181818;stroke-width:1;"/><text fill="#000000" font-family="sans-serif" font-size="13" lengthAdjust="spacing" textLength="74.5278" x="442.12" y="336.6328">match data</text></g><!--link P1 to D1--><g class="link" data-entity-1="ent0006" data-entity-2="ent0009" data-link-type="dependency" data-source-line="29" id="lnk18"><path d="M380.06,271.4059 C396.67,266.4459 409.62,262.5659 409.62,262.5659 C409.62,262.5659 498.713,249.5628 572.403,238.8028" fill="none" id="P1-to-D1" style="stroke:#181818;stroke-width:1;"/><polygon fill="#181818" points="578.34,237.9359,568.8565,235.2783,573.3925,238.6583,570.0124,243.1943,578.34,237.9359" style="stroke:#181818;stroke-width:1;"/><text fill="#000000" font-family="sans-serif" font-size="13" lengthAdjust="spacing" textLength="137.1665" x="410.62" y="238.6328">save raw match data</text></g><!--link D1 to P2--><g class="link" data-entity-1="ent0009" data-entity-2="ent0007" data-link-type="dependency" data-source-line="30" id="lnk19"><path d="M720.02,256.7759 C736.16,265.9459 749.57,273.5659 749.57,273.5659 C749.57,273.5659 779.57,302.5659 779.57,302.5659 C779.57,302.5659 918.57,302.5659 918.57,302.5659 C918.57,302.5659 925.1919,302.3884 942.1019,301.9584" fill="none" id="D1-to-P2" style="stroke:#181818;stroke-width:1;"/><polygon fill="#181818" points="948.1,301.8059,939.0012,298.036,943.1016,301.933,939.2046,306.0334,948.1,301.8059" style="stroke:#181818;stroke-width:1;"/><text fill="#000000" font-family="sans-serif" font-size="13" lengthAdjust="spacing" textLength="117.3682" x="790.57" y="298.6328">stored match files</text></g><!--link P1 to D2--><g class="link" data-entity-1="ent0006" data-entity-2="ent0010" data-link-type="dependency" data-source-line="32" id="lnk20"><path d="M344.95,265.9159 C373.79,244.3559 409.62,217.5659 409.62,217.5659 C409.62,217.5659 502.3587,185.0033 576.5387,158.9633" fill="none" id="P1-to-D2" style="stroke:#181818;stroke-width:1;"/><polygon fill="#181818" points="582.2,156.9759,572.3831,156.1827,577.4822,158.632,575.0329,163.7311,582.2,156.9759" style="stroke:#181818;stroke-width:1;"/><text fill="#000000" font-family="sans-serif" font-size="13" lengthAdjust="spacing" textLength="80.6152" x="439.1295" y="150.6328">save/update</text><text fill="#000000" font-family="sans-serif" font-size="13" lengthAdjust="spacing" textLength="93.6343" x="432.62" y="165.7656">player metrics</text></g><!--link D2 to P2--><g class="link" data-entity-1="ent0010" data-entity-2="ent0007" data-link-type="dependency" data-source-line="33" id="lnk21"><path d="M718.59,159.5959 C735.36,169.3259 749.57,177.5659 749.57,177.5659 C749.57,177.5659 779.57,245.5659 779.57,245.5659 C779.57,245.5659 868.3404,264.372 942.2804,280.042" fill="none" id="D2-to-P2" style="stroke:#181818;stroke-width:1;"/><polygon fill="#181818" points="948.15,281.2859,940.1748,275.5069,943.2586,280.2493,938.5163,283.3331,948.15,281.2859" style="stroke:#181818;stroke-width:1;"/><text fill="#000000" font-family="sans-serif" font-size="13" lengthAdjust="spacing" textLength="76.7051" x="811.07" y="241.6328">player stats</text></g><!--link P2 to D2--><g class="link" data-entity-1="ent0007" data-entity-2="ent0010" data-link-type="dependency" data-source-line="36" id="lnk23"><path d="M993.26,272.9159 C959.95,251.3559 918.57,224.5659 918.57,224.5659 C918.57,224.5659 825.7809,189.4314 751.6009,161.3314" fill="none" id="P2-to-D2" style="stroke:#181818;stroke-width:1;"/><polygon fill="#181818" points="745.99,159.2059,752.9894,166.1347,750.6658,160.9771,755.8234,158.6535,745.99,159.2059" style="stroke:#181818;stroke-width:1;"/><text fill="#000000" font-family="sans-serif" font-size="13" lengthAdjust="spacing" textLength="108.3037" x="795.07" y="169.6328">normalized stats</text></g><!--link D2 to P3--><g class="link" data-entity-1="ent0010" data-entity-2="ent0008" data-link-type="dependency" data-source-line="34" id="lnk22"><path d="M746.15,115.8259 C764.94,112.8659 779.57,110.5659 779.57,110.5659 C779.57,110.5659 874.3746,106.8515 949.1946,103.9115" fill="none" id="D2-to-P3" style="stroke:#181818;stroke-width:1;"/><polygon fill="#181818" points="955.19,103.6759,946.0399,100.0324,950.1939,103.8722,946.354,108.0262,955.19,103.6759" style="stroke:#181818;stroke-width:1;"/><text fill="#000000" font-family="sans-serif" font-size="13" lengthAdjust="spacing" textLength="137.6489" x="780.57" y="101.6328">player + cluster data</text></g><!--link P3 to D2--><g class="link" data-entity-1="ent0008" data-entity-2="ent0010" data-link-type="dependency" data-source-line="41" id="lnk27"><path d="M954.91,124.5859 C934.69,130.6959 918.57,135.5659 918.57,135.5659 C918.57,135.5659 779.57,135.5659 779.57,135.5659 C779.57,135.5659 770.9288,135.0424 752.1388,133.8924" fill="none" id="P3-to-D2" style="stroke:#181818;stroke-width:1;"/><polygon fill="#181818" points="746.15,133.5259,754.8888,138.0682,751.1407,133.8314,755.3775,130.0832,746.15,133.5259" style="stroke:#181818;stroke-width:1;"/><text fill="#000000" font-family="sans-serif" font-size="13" lengthAdjust="spacing" textLength="110.3413" x="794.07" y="131.6328">update countries</text></g><!--link P3 to OpenRouter--><g class="link" data-entity-1="ent0008" data-entity-2="ent0005" data-link-type="dependency" data-source-line="39" id="lnk25"><path d="M1115.86,113.2059 C1182.26,123.7659 1269.3046,137.613 1327.6846,146.903" fill="none" id="P3-to-OpenRouter" style="stroke:#181818;stroke-width:1;"/><polygon fill="#181818" points="1333.61,147.8459,1325.3504,142.4812,1328.6721,147.0602,1324.0932,150.3818,1333.61,147.8459" style="stroke:#181818;stroke-width:1;"/><text fill="#000000" font-family="sans-serif" font-size="13" lengthAdjust="spacing" textLength="91.9839" x="1176.29" y="116.6328">cluster names</text></g><!--link OpenRouter to P3--><g class="link" data-entity-1="ent0005" data-entity-2="ent0008" data-link-type="dependency" data-source-line="40" id="lnk26"><path d="M1333.61,161.6459 C1311.58,163.6859 1291.29,165.5659 1291.29,165.5659 C1291.29,165.5659 1152.29,165.5659 1152.29,165.5659 C1152.29,165.5659 1121.1229,148.0813 1089.1229,130.1313" fill="none" id="OpenRouter-to-P3" style="stroke:#181818;stroke-width:1;"/><polygon fill="#181818" points="1083.89,127.1959,1089.7825,135.0876,1088.2508,129.642,1093.6963,128.1103,1083.89,127.1959" style="stroke:#181818;stroke-width:1;"/><text fill="#000000" font-family="sans-serif" font-size="13" lengthAdjust="spacing" textLength="126.1279" x="1158.79" y="161.6328">country predictions</text></g><?plantuml-src JLJ1Rjim3BthAuYUDhHD4EUMmu02BeOEMvirsCqNrcPieRAiIN82x-j7oOhicytt7lNuA5lHsOCVmCgsyz18IxMNWnRkKsg35djm7JR3LUeMpgWShH23zIUsTFAJ8WX2rArQ4vJKv2T3O0OrXHSXiFQ3XRjdtS0VH_OEqCM76_1EZj3M7TdjaqOrEHyfIpaJvU3XwVWom_no0zuCwVTXz6Gpl9I4o3xXRhU1N-Zh3kQJfAiqigyJj-6nelAuMmkA3NotQ3fWMgLV1zkZalym10OdiXTP9rMnLkqtsNwbdxMLTTUJzd2KXa8eisGlH8CUFz2nfCpMIgv5HrJfBpzERw_Gn_fPAd9VexJShPNiyQXmukdBL6JXwVTFwIdH2o52ul3u-8tdWqDC3rxAXqfpLmx9FOGWvaXuhtz7SbumCmYYyf1COCxDaXkLT-lE1TFQcDP5qZNt4SigPzwUUJRLmAHCGiTqxZxILge3rCEelPssXkmvB47NB71ZtwETnCrfdEe0M4Sst5TwDirjhIGd8fupcB6GOsvGXhh32zzjlAu9vMwPq8NLDEkbBFeYwRUZOHrRDFDYUl9y2PnWGkwJ8EVHBy1-0UwXLgCBbpfvB9OpTBg8x6FM9p3jgYLDbizlvdLKEkn3t89TVIw7V8R6dWTPGTbEYXuCJotZhyBTEaKlywY9nZ7_1m00?></g></svg>