<svg xmlns="http://www.w3.org/2000/svg" xmlns:xlink="http://www.w3.org/1999/xlink" contentStyleType="text/css" data-diagram-type="DESCRIPTION" height="889px" preserveAspectRatio="none" style="width:1398px;height:889px;background:#FFFFFF;" version="1.1" viewBox="0 0 1398 889" width="1398px" zoomAndPan="magnify"><?plantuml 1.2026.3beta6?><defs/><g><g class="title" data-source-line="1"><text fill="#000000" font-family="sans-serif" font-size="14" font-weight="700" lengthAdjust="spacing" textLength="286.3643" x="552.5547" y="22.9951">Graph Artifact Package &#8212; Data Flow</text></g><!--cluster rust--><g class="cluster" data-qualified-name="rust" data-source-line="31" id="ent0002"><path d="M705.5,43.2969 L790.52,43.2969 A3.75,3.75 0 0 1 793.02,45.7969 L800.02,62.1016 L878.5,62.1016 A2.5,2.5 0 0 1 881,64.6016 L881,143.4069 A2.5,2.5 0 0 1 878.5,145.9069 L705.5,145.9069 A2.5,2.5 0 0 1 703,143.4069 L703,45.7969 A2.5,2.5 0 0 1 705.5,43.2969" fill="#FFFFFF" style="stroke:#000000;stroke-width:1.5;"/><line style="stroke:#000000;stroke-width:1.5;" x1="703" x2="800.02" y1="62.1016" y2="62.1016"/><text fill="#000000" font-family="sans-serif" font-size="11" font-weight="700" lengthAdjust="spacing" textLength="84.02" x="707" y="55.5073">Rust Runtime</text></g><!--cluster cache--><g class="cluster" data-qualified-name="cache" data-source-line="36" id="ent0004"><path d="M8.5,199.9069 L276.3091,199.9069 A3.75,3.75 0 0 1 278.8091,202.4069 L285.8091,218.7116 L1034.5,218.7116 A2.5,2.5 0 0 1 1037,221.2116 L1037,547.0269 A2.5,2.5 0 0 1 1034.5,549.5269 L8.5,549.5269 A2.5,2.5 0 0 1 6,547.0269 L6,202.4069 A2.5,2.5 0 0 1 8.5,199.9069" fill="#FFFFFF" style="stroke:#000000;stroke-width:1.5;"/><line style="stroke:#000000;stroke-width:1.5;" x1="6" x2="285.8091" y1="218.7116" y2="218.7116"/><text fill="#000000" font-family="sans-serif" font-size="11" font-weight="700" lengthAdjust="spacing" textLength="266.8091" x="10" y="212.1173">backend/data/cache/{datasetId}/graph-v2/</text></g><!--cluster jgroup--><g class="cluster" data-qualified-name="cache.jgroup" data-source-line="38" id="ent0005"><rect fill="#FFFFFF" height="254.62" rx="2.5" ry="2.5" style="stroke:#000000;stroke-width:1;" width="501" x="46" y="254.9069"/><text fill="#000000" font-family="sans-serif" font-size="11" font-weight="700" lengthAdjust="spacing" textLength="67.3213" x="262.8394" y="267.1173">JSON / text</text></g><!--cluster bgroup--><g class="cluster" data-qualified-name="cache.bgroup" data-source-line="45" id="ent0010"><rect fill="#FFFFFF" height="254.62" rx="2.5" ry="2.5" style="stroke:#000000;stroke-width:1;" width="402" x="587" y="254.9069"/><text fill="#000000" font-family="sans-serif" font-size="11" font-weight="700" lengthAdjust="spacing" textLength="88.5425" x="743.7288" y="267.1173">Binary buffers</text></g><!--cluster fe--><g class="cluster" data-qualified-name="fe" data-source-line="58" id="ent0016"><path d="M863.5,616.5269 L921.251,616.5269 A3.75,3.75 0 0 1 923.751,619.0269 L930.751,635.3316 L1275.5,635.3316 A2.5,2.5 0 0 1 1278,637.8316 L1278,871.8569 A2.5,2.5 0 0 1 1275.5,874.3569 L863.5,874.3569 A2.5,2.5 0 0 1 861,871.8569 L861,619.0269 A2.5,2.5 0 0 1 863.5,616.5269" fill="#FFFFFF" style="stroke:#000000;stroke-width:1.5;"/><line style="stroke:#000000;stroke-width:1.5;" x1="861" x2="930.751" y1="635.3316" y2="635.3316"/><text fill="#000000" font-family="sans-serif" font-size="11" font-weight="700" lengthAdjust="spacing" textLength="56.751" x="865" y="628.7373">Frontend</text></g><!--entity exporter--><g class="entity" data-qualified-name="rust.exporter" data-source-line="32" id="ent0003"><rect fill="#FFFFFF" height="55.6094" rx="2.5" ry="2.5" style="stroke:#000000;stroke-width:0.5;" width="146.1812" x="718.91" y="74.2969"/><rect fill="#FFFFFF" height="10" style="stroke:#000000;stroke-width:0.5;" width="15" x="845.0912" y="79.2969"/><rect fill="#FFFFFF" height="2" style="stroke:#000000;stroke-width:0.5;" width="4" x="843.0912" y="81.2969"/><rect fill="#FFFFFF" height="2" style="stroke:#000000;stroke-width:0.5;" width="4" x="843.0912" y="85.2969"/><text fill="#000000" font-family="sans-serif" font-size="11" lengthAdjust="spacing" textLength="106.1812" x="733.91" y="104.5073">engine/graph_v2.rs</text><text fill="#000000" font-family="sans-serif" font-size="11" lengthAdjust="spacing" textLength="101.1162" x="733.91" y="117.312">graph_v2_export()</text></g><!--entity manifest--><g class="entity" data-qualified-name="cache.jgroup.manifest" data-source-line="39" id="ent0006"><rect fill="#FFFFFF" height="55.6094" rx="2.5" ry="2.5" style="stroke:#000000;stroke-width:0.5;" width="185.4224" x="70.29" y="293.9069"/><rect fill="#FFFFFF" height="10" style="stroke:#000000;stroke-width:0.5;" width="15" x="235.7124" y="298.9069"/><rect fill="#FFFFFF" height="2" style="stroke:#000000;stroke-width:0.5;" width="4" x="233.7124" y="300.9069"/><rect fill="#FFFFFF" height="2" style="stroke:#000000;stroke-width:0.5;" width="4" x="233.7124" y="304.9069"/><text fill="#000000" font-family="sans-serif" font-size="11" lengthAdjust="spacing" textLength="74.1533" x="85.29" y="324.1173">manifest.json</text><text fill="#000000" font-family="sans-serif" font-size="11" lengthAdjust="spacing" textLength="145.4224" x="85.29" y="336.922">counts &#183; scale &#183; timestamp</text></g><!--entity nodemeta--><g class="entity" data-qualified-name="cache.jgroup.nodemeta" data-source-line="40" id="ent0007"><rect fill="#FFFFFF" height="55.6094" rx="2.5" ry="2.5" style="stroke:#000000;stroke-width:0.5;" width="213.1963" x="290.4" y="293.9069"/><rect fill="#FFFFFF" height="10" style="stroke:#000000;stroke-width:0.5;" width="15" x="483.5963" y="298.9069"/><rect fill="#FFFFFF" height="2" style="stroke:#000000;stroke-width:0.5;" width="4" x="481.5963" y="300.9069"/><rect fill="#FFFFFF" height="2" style="stroke:#000000;stroke-width:0.5;" width="4" x="481.5963" y="304.9069"/><text fill="#000000" font-family="sans-serif" font-size="11" lengthAdjust="spacing" textLength="87.4736" x="305.4" y="324.1173">node_meta.json</text><text fill="#000000" font-family="sans-serif" font-size="11" lengthAdjust="spacing" textLength="173.1963" x="305.4" y="336.922">puuid &#183; name &#183; cluster &#183; relation</text></g><!--entity clustermeta--><g class="entity" data-qualified-name="cache.jgroup.clustermeta" data-source-line="41" id="ent0008"><rect fill="#FFFFFF" height="55.6094" rx="2.5" ry="2.5" style="stroke:#000000;stroke-width:0.5;" width="169.0083" x="78.5" y="429.9169"/><rect fill="#FFFFFF" height="10" style="stroke:#000000;stroke-width:0.5;" width="15" x="227.5083" y="434.9169"/><rect fill="#FFFFFF" height="2" style="stroke:#000000;stroke-width:0.5;" width="4" x="225.5083" y="436.9169"/><rect fill="#FFFFFF" height="2" style="stroke:#000000;stroke-width:0.5;" width="4" x="225.5083" y="440.9169"/><text fill="#000000" font-family="sans-serif" font-size="11" lengthAdjust="spacing" textLength="97.4316" x="93.5" y="460.1273">cluster_meta.json</text><text fill="#000000" font-family="sans-serif" font-size="11" lengthAdjust="spacing" textLength="129.0083" x="93.5" y="472.932">id &#183; label &#183; bridge &#183; orbit</text></g><!--entity summary--><g class="entity" data-qualified-name="cache.jgroup.summary" data-source-line="42" id="ent0009"><rect fill="#FFFFFF" height="55.6094" rx="2.5" ry="2.5" style="stroke:#000000;stroke-width:0.5;" width="153.3462" x="282.33" y="429.9169"/><rect fill="#FFFFFF" height="10" style="stroke:#000000;stroke-width:0.5;" width="15" x="415.6762" y="434.9169"/><rect fill="#FFFFFF" height="2" style="stroke:#000000;stroke-width:0.5;" width="4" x="413.6762" y="436.9169"/><rect fill="#FFFFFF" height="2" style="stroke:#000000;stroke-width:0.5;" width="4" x="413.6762" y="440.9169"/><text fill="#000000" font-family="sans-serif" font-size="11" lengthAdjust="spacing" textLength="73.1006" x="297.33" y="460.1273">summary.md</text><text fill="#000000" font-family="sans-serif" font-size="11" lengthAdjust="spacing" textLength="113.3462" x="297.33" y="472.932">stats &#183; interpretation</text></g><!--entity positions--><g class="entity" data-qualified-name="cache.bgroup.positions" data-source-line="46" id="ent0011"><rect fill="#FFFFFF" height="55.6094" rx="2.5" ry="2.5" style="stroke:#000000;stroke-width:0.5;" width="143.6191" x="611.19" y="293.9069"/><rect fill="#FFFFFF" height="10" style="stroke:#000000;stroke-width:0.5;" width="15" x="734.8091" y="298.9069"/><rect fill="#FFFFFF" height="2" style="stroke:#000000;stroke-width:0.5;" width="4" x="732.8091" y="300.9069"/><rect fill="#FFFFFF" height="2" style="stroke:#000000;stroke-width:0.5;" width="4" x="732.8091" y="304.9069"/><text fill="#000000" font-family="sans-serif" font-size="11" lengthAdjust="spacing" textLength="103.6191" x="626.19" y="324.1173">node_positions.f32</text><text fill="#000000" font-family="sans-serif" font-size="11" lengthAdjust="spacing" textLength="85.4971" x="626.19" y="336.922">x, y, z per node</text></g><!--entity metrics--><g class="entity" data-qualified-name="cache.bgroup.metrics" data-source-line="47" id="ent0012"><rect fill="#FFFFFF" height="55.6094" rx="2.5" ry="2.5" style="stroke:#000000;stroke-width:0.5;" width="155.9512" x="790.02" y="293.9069"/><rect fill="#FFFFFF" height="10" style="stroke:#000000;stroke-width:0.5;" width="15" x="925.9712" y="298.9069"/><rect fill="#FFFFFF" height="2" style="stroke:#000000;stroke-width:0.5;" width="4" x="923.9712" y="300.9069"/><rect fill="#FFFFFF" height="2" style="stroke:#000000;stroke-width:0.5;" width="4" x="923.9712" y="304.9069"/><text fill="#000000" font-family="sans-serif" font-size="11" lengthAdjust="spacing" textLength="98.5703" x="805.02" y="324.1173">node_metrics.u32</text><text fill="#000000" font-family="sans-serif" font-size="11" lengthAdjust="spacing" textLength="115.9512" x="805.02" y="336.922">ally_weight &#183; opscore</text></g><!--entity edgepairs--><g class="entity" data-qualified-name="cache.bgroup.edgepairs" data-source-line="48" id="ent0013"><rect fill="#FFFFFF" height="55.6094" rx="2.5" ry="2.5" style="stroke:#000000;stroke-width:0.5;" width="133.0005" x="616.5" y="429.9169"/><rect fill="#FFFFFF" height="10" style="stroke:#000000;stroke-width:0.5;" width="15" x="729.5005" y="434.9169"/><rect fill="#FFFFFF" height="2" style="stroke:#000000;stroke-width:0.5;" width="4" x="727.5005" y="436.9169"/><rect fill="#FFFFFF" height="2" style="stroke:#000000;stroke-width:0.5;" width="4" x="727.5005" y="440.9169"/><text fill="#000000" font-family="sans-serif" font-size="11" lengthAdjust="spacing" textLength="84.498" x="631.5" y="460.1273">edge_pairs.u32</text><text fill="#000000" font-family="sans-serif" font-size="11" lengthAdjust="spacing" textLength="93.0005" x="631.5" y="472.932">(src_idx, dst_idx)</text></g><!--entity edgeprops--><g class="entity" data-qualified-name="cache.bgroup.edgeprops" data-source-line="49" id="ent0014"><rect fill="#FFFFFF" height="55.6094" rx="2.5" ry="2.5" style="stroke:#000000;stroke-width:0.5;" width="155.6343" x="784.18" y="429.9169"/><rect fill="#FFFFFF" height="10" style="stroke:#000000;stroke-width:0.5;" width="15" x="919.8143" y="434.9169"/><rect fill="#FFFFFF" height="2" style="stroke:#000000;stroke-width:0.5;" width="4" x="917.8143" y="436.9169"/><rect fill="#FFFFFF" height="2" style="stroke:#000000;stroke-width:0.5;" width="4" x="917.8143" y="440.9169"/><text fill="#000000" font-family="sans-serif" font-size="11" lengthAdjust="spacing" textLength="88.4136" x="799.18" y="460.1273">edge_props.u32</text><text fill="#000000" font-family="sans-serif" font-size="11" lengthAdjust="spacing" textLength="115.6343" x="799.18" y="472.932">flag &#183; weight (scaled)</text></g><!--entity webgl--><g class="entity" data-qualified-name="fe.webgl" data-source-line="59" id="ent0017"><rect fill="#FFFFFF" height="81.2188" rx="2.5" ry="2.5" style="stroke:#000000;stroke-width:0.5;" width="187.8931" x="877.05" y="647.5269"/><rect fill="#FFFFFF" height="10" style="stroke:#000000;stroke-width:0.5;" width="15" x="1044.9431" y="652.5269"/><rect fill="#FFFFFF" height="2" style="stroke:#000000;stroke-width:0.5;" width="4" x="1042.9431" y="654.5269"/><rect fill="#FFFFFF" height="2" style="stroke:#000000;stroke-width:0.5;" width="4" x="1042.9431" y="658.5269"/><text fill="#000000" font-family="sans-serif" font-size="11" lengthAdjust="spacing" textLength="101.8521" x="892.05" y="677.7373">GraphV2Scene.tsx</text><text fill="#000000" font-family="sans-serif" font-size="11" lengthAdjust="spacing" textLength="93.8008" x="892.05" y="690.542">Three.js &#183; WebGL</text><text fill="#000000" font-family="sans-serif" font-size="11" lengthAdjust="spacing" textLength="147.8931" x="892.05" y="703.3467">Float32Array / Uint32Array</text><text fill="#000000" font-family="sans-serif" font-size="11" lengthAdjust="spacing" textLength="101.1162" x="892.05" y="716.1514">&#8594; BufferGeometry</text></g><!--entity sphere--><g class="entity" data-qualified-name="fe.sphere" data-source-line="60" id="ent0018"><rect fill="#FFFFFF" height="55.6094" rx="2.5" ry="2.5" style="stroke:#000000;stroke-width:0.5;" width="183.6123" x="1028.19" y="802.7469"/><rect fill="#FFFFFF" height="10" style="stroke:#000000;stroke-width:0.5;" width="15" x="1191.8023" y="807.7469"/><rect fill="#FFFFFF" height="2" style="stroke:#000000;stroke-width:0.5;" width="4" x="1189.8023" y="809.7469"/><rect fill="#FFFFFF" height="2" style="stroke:#000000;stroke-width:0.5;" width="4" x="1189.8023" y="813.7469"/><text fill="#000000" font-family="sans-serif" font-size="11" lengthAdjust="spacing" textLength="119.9097" x="1043.19" y="832.9573">GraphSpherePage.tsx</text><text fill="#000000" font-family="sans-serif" font-size="11" lengthAdjust="spacing" textLength="143.6123" x="1043.19" y="845.762">dataset selector &#183; controls</text></g><!--entity analytics--><g class="entity" data-qualified-name="fe.analytics" data-source-line="61" id="ent0019"><rect fill="#FFFFFF" height="55.6094" rx="2.5" ry="2.5" style="stroke:#000000;stroke-width:0.5;" width="162.3428" x="1099.83" y="660.3369"/><rect fill="#FFFFFF" height="10" style="stroke:#000000;stroke-width:0.5;" width="15" x="1242.1728" y="665.3369"/><rect fill="#FFFFFF" height="2" style="stroke:#000000;stroke-width:0.5;" width="4" x="1240.1728" y="667.3369"/><rect fill="#FFFFFF" height="2" style="stroke:#000000;stroke-width:0.5;" width="4" x="1240.1728" y="671.3369"/><text fill="#000000" font-family="sans-serif" font-size="11" lengthAdjust="spacing" textLength="95.1006" x="1114.83" y="690.5473">Analytics context</text><text fill="#000000" font-family="sans-serif" font-size="11" lengthAdjust="spacing" textLength="122.3428" x="1114.83" y="703.352">interpretation &#183; export</text></g><!--entity api--><g class="entity" data-qualified-name="api" data-source-line="55" id="ent0015"><rect fill="#FFFFFF" height="68.4141" rx="2.5" ry="2.5" style="stroke:#000000;stroke-width:0.5;" width="240.0571" x="1060.97" y="423.5169"/><rect fill="#FFFFFF" height="10" style="stroke:#000000;stroke-width:0.5;" width="15" x="1281.0271" y="428.5169"/><rect fill="#FFFFFF" height="2" style="stroke:#000000;stroke-width:0.5;" width="4" x="1279.0271" y="430.5169"/><rect fill="#FFFFFF" height="2" style="stroke:#000000;stroke-width:0.5;" width="4" x="1279.0271" y="434.5169"/><text fill="#000000" font-family="sans-serif" font-size="11" lengthAdjust="spacing" textLength="128.6807" x="1075.97" y="453.7273">Express API  &#183;  server.js</text><text fill="#000000" font-family="sans-serif" font-size="11" lengthAdjust="spacing" textLength="200.0571" x="1075.97" y="466.532">/api/pathfinder-rust/graph-v2-export</text><text fill="#000000" font-family="sans-serif" font-size="11" lengthAdjust="spacing" textLength="169.4688" x="1075.97" y="479.3367">/api/pathfinder-rust/graph-v2/*</text></g><!--link exporter to jgroup--><g class="link" data-entity-1="ent0003" data-entity-2="ent0005" data-link-type="dependency" data-source-line="65" id="lnk20"><path d="M718.58,118.4069 C677.7,130.2369 628.45,150.4369 595,183.9069 C572.145,206.7819 558.2225,240.2794 549.9762,268.4019 C548.9455,271.9172 549.5092,269.5405 548.6494,272.8566" fill="none" id="exporter-to-jgroup" style="stroke:#000000;stroke-width:1;"/><polygon fill="#000000" points="547.1436,278.6646,553.2743,270.9565,548.3985,273.8246,545.5304,268.9488,547.1436,278.6646" style="stroke:#000000;stroke-width:1;"/><text fill="#000000" font-family="sans-serif" font-size="11" lengthAdjust="spacing" textLength="138.2358" x="622" y="173.1173">writes JSON + markdown</text></g><!--link exporter to bgroup--><g class="link" data-entity-1="ent0003" data-entity-2="ent0010" data-link-type="dependency" data-source-line="66" id="lnk21"><path d="M865.33,120.5069 C900.01,132.5469 938.82,152.2769 962,183.9069 C966.465,189.9994 969.8831,201.3787 972.4992,215.0737 C973.8073,221.9212 974.9148,229.3477 975.8524,236.9816 C976.3213,240.7985 976.7476,244.6673 977.1353,248.5416 C977.3291,250.4788 976.9726,246.4417 977.1476,248.3757" fill="none" id="exporter-to-bgroup" style="stroke:#000000;stroke-width:1;"/><polygon fill="#000000" points="977.6883,254.3513,980.861,245.0275,977.2378,249.3717,972.8936,245.7484,977.6883,254.3513" style="stroke:#000000;stroke-width:1;"/><text fill="#000000" font-family="sans-serif" font-size="11" lengthAdjust="spacing" textLength="113.8833" x="953" y="173.1173">writes binary buffers</text></g><!--link cache to api--><g class="link" data-entity-1="ent0004" data-entity-2="ent0015" data-link-type="dependency" data-source-line="69" id="lnk22"><path d="M1037.2647,329.9979 C1037.3595,330.0815 1037.4551,330.1658 1037.5513,330.2507 C1037.7439,330.4204 1037.9392,330.5927 1038.1374,330.7675 C1038.5339,331.117 1038.9415,331.4764 1039.3601,331.8455 C1040.1973,332.5837 1041.0782,333.3604 1042.0002,334.1733 C1049.3759,340.6766 1059.3806,349.4975 1070.6638,359.4456 C1093.23,379.3419 1116.4097,399.7786 1138.3997,419.1686" fill="none" id="cache-to-api" style="stroke:#000000;stroke-width:1;"/><polygon fill="#000000" points="1142.9,423.1369,1138.795,414.1843,1139.1497,419.83,1133.504,420.1847,1142.9,423.1369" style="stroke:#000000;stroke-width:1;"/><text fill="#000000" font-family="sans-serif" font-size="11" lengthAdjust="spacing" textLength="92.5923" x="1106" y="390.7273">filesystem cache</text></g><!--link api to webgl--><g class="link" data-entity-1="ent0015" data-entity-2="ent0017" data-link-type="dependency" data-source-line="72" id="lnk23"><path d="M1146.73,492.2769 C1123.99,514.8469 1093.7,545.4969 1068,573.5269 C1046.09,597.4269 1026.3026,620.4671 1007.8426,642.5071" fill="none" id="api-to-webgl" style="stroke:#000000;stroke-width:1;"/><polygon fill="#000000" points="1003.99,647.1069,1012.8354,642.7757,1007.2005,643.2738,1006.7024,637.6389,1003.99,647.1069" style="stroke:#000000;stroke-width:1;"/><text fill="#000000" font-family="sans-serif" font-size="11" lengthAdjust="spacing" textLength="77" x="1082.2129" y="584.7373">binary buffers</text><text fill="#000000" font-family="sans-serif" font-size="11" lengthAdjust="spacing" textLength="103.4258" x="1069" y="597.542">(ArrayBuffer fetch)</text></g><!--link api to sphere--><g class="link" data-entity-1="ent0015" data-entity-2="ent0018" data-link-type="dependency" data-source-line="73" id="lnk24"><path d="M1210.98,492.1269 C1254.21,544.5769 1324.27,648.5269 1280,728.7469 C1261.44,762.3769 1231.7987,783.6681 1199.2487,799.7581" fill="none" id="api-to-sphere" style="stroke:#000000;stroke-width:1;"/><polygon fill="#000000" points="1193.87,802.4169,1203.7106,802.0145,1198.3523,800.2012,1200.1656,794.8429,1193.87,802.4169" style="stroke:#000000;stroke-width:1;"/><text fill="#000000" font-family="sans-serif" font-size="11" lengthAdjust="spacing" textLength="74.1533" x="1301.6602" y="685.8473">manifest.json</text><text fill="#000000" font-family="sans-serif" font-size="11" lengthAdjust="spacing" textLength="87.4736" x="1295" y="698.652">node_meta.json</text></g><!--link api to analytics--><g class="link" data-entity-1="ent0015" data-entity-2="ent0019" data-link-type="dependency" data-source-line="74" id="lnk25"><path d="M1181,492.4269 C1181,537.9669 1181,612.2669 1181,654.0969" fill="none" id="api-to-analytics" style="stroke:#000000;stroke-width:1;"/><polygon fill="#000000" points="1181,660.0969,1185,651.0969,1181,655.0969,1177,651.0969,1181,660.0969" style="stroke:#000000;stroke-width:1;"/><text fill="#000000" font-family="sans-serif" font-size="11" lengthAdjust="spacing" textLength="73.1006" x="1182.5264" y="584.7373">summary.md</text><text fill="#000000" font-family="sans-serif" font-size="11" lengthAdjust="spacing" textLength="74.1533" x="1182" y="597.542">manifest.json</text></g><!--link webgl to sphere--><g class="link" data-entity-1="ent0017" data-entity-2="ent0018" data-link-type="dependency" data-source-line="76" id="lnk26"><path d="M1013.3,728.9969 C1038.25,752.5169 1064.8039,777.5314 1086.9239,798.3814" fill="none" id="webgl-to-sphere" style="stroke:#000000;stroke-width:1;"/><polygon fill="#000000" points="1091.29,802.4969,1087.4844,793.4129,1087.6516,799.0673,1081.9972,799.2345,1091.29,802.4969" style="stroke:#000000;stroke-width:1;"/><text fill="#000000" font-family="sans-serif" font-size="11" lengthAdjust="spacing" textLength="92.5225" x="1059" y="769.9573">rendered canvas</text></g><?plantuml-src rLR1Zjis4BthAmPxoQQDBSIvvL1WD-ak4XJj8cwRGnmOb3IIcAL8OKYjxImMoAaVKEHVUi-dx9TaICgEP3Z89K0Tm0TQcdcSUPptA2UTGhWaqTPmHawM8dTm9V9hKI7SV_W8puKJSA7CAacSQS4Po8npfe524kPE6fqazbhgLf1e8EFCYaodYsT66O9LBHqEtjjQ56ObTGMbK7Rufi1ITCfT6ErYQgOOwt30NBv7UFnuk77RbtoR09mVB8AV6ogGXkW0-_lT3J1zVq9NwlkYvgPfZKRjlYkg83AhWFYjdEG1t7_ym3zurLa7k6uDEQJ-uP7yakrvdeGYNtNQoGPFG5WW_y0t-eN8DwWhgJ6j_1WlRsPJiWkz_REC7Pu-VEkpj-sEYDWDVYxo6i5e7cvx3Vzdsrv8g8kqOFcbeQpqrgyjkXV5NUnqSZDB0oMnxDk4IVaoioSlvt_y3YauNBiGzSxFMHke6v7N22rBj6xwpXgzq3aFexFmwJ-mkM0SNdZkhHDD6oZSnk_ZQ5FWia4dUg2swsJXqxLe0aok-EXuqdX9g8JtZW3e4ttUFc0VFyICW4fagFmY8rbK0TjG9br0wxCE0TgkQGHjfasnqDnFx59gZcw9mtS5zN6SVhV7wRdK_0AohYoHRA0r-mgjWOxMMEbXxRHyCblezIFOF8Btq38B_dtORHVpDK99vdRQ-NoXr6QvGbdLBZJTsjnGHEdZzZ6G-LcsGbAFS6efNyg22ociyujU5XmMeWxd4-yKyqibAhzrNyHfc95Y0E938t53XVswPeQjXREh5yTbDBtk1XqFI_MTWaMwGU81NEXKj39jXQjBgTcU9zwBTbgSH6_vHbJwK-2AGmRqN13RDCkTcTSyV3nQS2p-koqjp7g9-yuRlXp-dirpr3XrThtGVzQ4o6nvxbvZTldRGlFdWt1FPcT4OiEEz1TBhl-tqFV__0ldGKwNQFmGRm8_AymgTM2hULiZuHMN5dVhFP4FIR5AJJ0N9j6HKJPgEIICaSvOI1l7QWcXx8ziB2CNy2ZnDEDXRUD7C_sQ-Ae-nca-S9oxMtuo-MLx4S1JMFaMB8IRucSsThhchpCzZixsexEH1mu8cNkX_224n2lJzyTAvDvAgT1k-E9eucqwQEjPrEInDvRuHdn3GJhUnhcjyLcn_GVLHRsncbrUFzpbHQN4lBrlWl7LlilOwO8pXdVhA3j9Oa63BPxobUgT4TdmXBuHzZC0?></g></svg>