<?plantuml 1.2026.2beta3?><svg xmlns="http://www.w3.org/2000/svg" xmlns:xlink="http://www.w3.org/1999/xlink" contentStyleType="text/css" data-diagram-type="STATE" height="1196px" preserveAspectRatio="none" style="width:728px;height:1196px;background:#FFFFFF;" version="1.1" viewBox="0 0 728 1196" width="728px" zoomAndPan="magnify"><title>Research Pipeline State Machine</title><defs/><g><g class="title" data-source-line="1"><text fill="#000000" font-family="sans-serif" font-size="14" font-weight="bold" lengthAdjust="spacing" textLength="259.2939" x="227.4585" y="22.9951">Research Pipeline State Machine</text></g><g class="start_entity" data-qualified-name=".start." data-source-line="3" id="ent0002"><ellipse cx="433" cy="53.2969" fill="#222222" rx="10" ry="10" style="stroke:#222222;stroke-width:1;"/></g><g class="entity" data-qualified-name="Idle" id="ent0003"><rect fill="#F1F1F1" height="50" rx="12.5" ry="12.5" style="stroke:#181818;stroke-width:0.5;" width="50" x="408" y="124.2969"/><line style="stroke:#181818;stroke-width:0.5;" x1="408" x2="458" y1="150.5938" y2="150.5938"/><text fill="#000000" font-family="sans-serif" font-size="14" lengthAdjust="spacing" textLength="25.5186" x="420.2407" y="142.292">Idle</text></g><g class="entity" data-qualified-name="CollectingMatchData" id="ent0005"><rect fill="#F1F1F1" height="50" rx="12.5" ry="12.5" style="stroke:#181818;stroke-width:0.5;" width="165.7148" x="350.14" y="251.2969"/><line style="stroke:#181818;stroke-width:0.5;" x1="350.14" x2="515.8548" y1="277.5938" y2="277.5938"/><text fill="#000000" font-family="sans-serif" font-size="14" lengthAdjust="spacing" textLength="145.7148" x="360.14" y="269.292">CollectingMatchData</text></g><g class="entity" data-qualified-name="RegisteringPlayersToDb" id="ent0007"><rect fill="#F1F1F1" height="50" rx="12.5" ry="12.5" style="stroke:#181818;stroke-width:0.5;" width="187.5625" x="291.22" y="378.2969"/><line style="stroke:#181818;stroke-width:0.5;" x1="291.22" x2="478.7825" y1="404.5938" y2="404.5938"/><text fill="#000000" font-family="sans-serif" font-size="14" lengthAdjust="spacing" textLength="167.5625" x="301.22" y="396.292">RegisteringPlayersToDb</text></g><g class="entity" data-qualified-name="FailedAPI" id="ent0009"><rect fill="#F1F1F1" height="50" rx="12.5" ry="12.5" style="stroke:#181818;stroke-width:0.5;" width="84.0596" x="504.97" y="1140.2969"/><line style="stroke:#181818;stroke-width:0.5;" x1="504.97" x2="589.0296" y1="1166.5938" y2="1166.5938"/><text fill="#000000" font-family="sans-serif" font-size="14" lengthAdjust="spacing" textLength="64.0596" x="514.97" y="1158.292">FailedAPI</text></g><g class="entity" data-qualified-name="NormalizingPlayerMetrics" id="ent0011"><rect fill="#F1F1F1" height="50" rx="12.5" ry="12.5" style="stroke:#181818;stroke-width:0.5;" width="198.1719" x="285.91" y="505.2969"/><line style="stroke:#181818;stroke-width:0.5;" x1="285.91" x2="484.0819" y1="531.5938" y2="531.5938"/><text fill="#000000" font-family="sans-serif" font-size="14" lengthAdjust="spacing" textLength="178.1719" x="295.91" y="523.292">NormalizingPlayerMetrics</text></g><g class="entity" data-qualified-name="BuildingAssociationGraph" id="ent0013"><rect fill="#F1F1F1" height="50" rx="12.5" ry="12.5" style="stroke:#181818;stroke-width:0.5;" width="199.4502" x="285.27" y="632.2969"/><line style="stroke:#181818;stroke-width:0.5;" x1="285.27" x2="484.7202" y1="658.5938" y2="658.5938"/><text fill="#000000" font-family="sans-serif" font-size="14" lengthAdjust="spacing" textLength="179.4502" x="295.27" y="650.292">BuildingAssociationGraph</text></g><g class="entity" data-qualified-name="Completed" id="ent0015"><rect fill="#F1F1F1" height="50" rx="12.5" ry="12.5" style="stroke:#181818;stroke-width:0.5;" width="96.3574" x="15.82" y="1140.2969"/><line style="stroke:#181818;stroke-width:0.5;" x1="15.82" x2="112.1774" y1="1166.5938" y2="1166.5938"/><text fill="#000000" font-family="sans-serif" font-size="14" lengthAdjust="spacing" textLength="76.3574" x="25.82" y="1158.292">Completed</text></g><g class="entity" data-qualified-name="PreparingClusterProfiles" id="ent0017"><rect fill="#F1F1F1" height="50" rx="12.5" ry="12.5" style="stroke:#181818;stroke-width:0.5;" width="188.752" x="118.62" y="759.2969"/><line style="stroke:#181818;stroke-width:0.5;" x1="118.62" x2="307.372" y1="785.5938" y2="785.5938"/><text fill="#000000" font-family="sans-serif" font-size="14" lengthAdjust="spacing" textLength="168.752" x="128.62" y="777.292">PreparingClusterProfiles</text></g><g class="entity" data-qualified-name="InferringClusterCountries" id="ent0019"><rect fill="#F1F1F1" height="50" rx="12.5" ry="12.5" style="stroke:#181818;stroke-width:0.5;" width="196.5244" x="108.74" y="886.2969"/><line style="stroke:#181818;stroke-width:0.5;" x1="108.74" x2="305.2644" y1="912.5938" y2="912.5938"/><text fill="#000000" font-family="sans-serif" font-size="14" lengthAdjust="spacing" textLength="176.5244" x="118.74" y="904.292">InferringClusterCountries</text></g><g class="entity" data-qualified-name="SavingCountryAssignmentsFromAPI" id="ent0021"><rect fill="#F1F1F1" height="50" rx="12.5" ry="12.5" style="stroke:#181818;stroke-width:0.5;" width="270.8994" x="67.55" y="1013.2969"/><line style="stroke:#181818;stroke-width:0.5;" x1="67.55" x2="338.4494" y1="1039.5938" y2="1039.5938"/><text fill="#000000" font-family="sans-serif" font-size="14" lengthAdjust="spacing" textLength="250.8994" x="77.55" y="1031.292">SavingCountryAssignmentsFromAPI</text></g><!--link *start* to Idle--><g class="link" data-entity-1="ent0002" data-entity-2="ent0003" data-link-type="dependency" data-source-line="3" id="lnk4"><path d="M433,63.6569 C433,77.5869 433,98.2469 433,117.9469" fill="none" id="*start*-to-Idle" style="stroke:#181818;stroke-width:1;"/><polygon fill="#181818" points="433,123.9469,437,114.9469,433,118.9469,429,114.9469,433,123.9469" style="stroke:#181818;stroke-width:1;"/></g><!--link Idle to CollectingMatchData--><g class="link" data-entity-1="ent0003" data-entity-2="ent0005" data-link-type="dependency" data-source-line="5" id="lnk6"><path d="M433,174.6969 C433,196.7169 433,222.9569 433,244.9569" fill="none" id="Idle-to-CollectingMatchData" style="stroke:#181818;stroke-width:1;"/><polygon fill="#181818" points="433,250.9569,437,241.9569,433,245.9569,429,241.9569,433,250.9569" style="stroke:#181818;stroke-width:1;"/><text fill="#000000" font-family="sans-serif" font-size="13" lengthAdjust="spacing" textLength="180.1973" x="434" y="217.3638">pipeline started / env ready</text></g><!--link CollectingMatchData to RegisteringPlayersToDb--><g class="link" data-entity-1="ent0005" data-entity-2="ent0007" data-link-type="dependency" data-source-line="7" id="lnk8"><path d="M402.69,301.5369 C394.37,309.9769 386.43,320.1569 382,331.2969 C376.17,345.9669 375.9944,357.7887 378.1944,371.8787" fill="none" id="CollectingMatchData-to-RegisteringPlayersToDb" style="stroke:#181818;stroke-width:1;"/><polygon fill="#181818" points="379.12,377.8069,381.6837,368.2975,378.3487,372.8667,373.7795,369.5317,379.12,377.8069" style="stroke:#181818;stroke-width:1;"/><text fill="#000000" font-family="sans-serif" font-size="13" lengthAdjust="spacing" textLength="137.4775" x="383" y="344.3638">match data collected</text></g><!--link CollectingMatchData to FailedAPI--><g class="link" data-entity-1="ent0005" data-entity-2="ent0009" data-link-type="dependency" data-source-line="8" id="lnk10"><path d="M489.65,301.7269 C502.74,309.5769 515.57,319.3969 525,331.2969 C545.52,357.1869 547,369.2569 547,402.2969 C547,402.2969 547,402.2969 547,1039.2969 C547,1074.2369 547,1108.6669 547,1133.8669" fill="none" id="CollectingMatchData-to-FailedAPI" style="stroke:#181818;stroke-width:1;"/><polygon fill="#181818" points="547,1139.8669,551,1130.8669,547,1134.8669,543,1130.8669,547,1139.8669" style="stroke:#181818;stroke-width:1;"/><text fill="#000000" font-family="sans-serif" font-size="13" lengthAdjust="spacing" textLength="114.0928" x="548" y="725.3638">error with RiotAPI</text></g><!--link RegisteringPlayersToDb to NormalizingPlayerMetrics--><g class="link" data-entity-1="ent0007" data-entity-2="ent0011" data-link-type="dependency" data-source-line="10" id="lnk12"><path d="M385,428.6969 C385,450.7169 385,476.9569 385,498.9569" fill="none" id="RegisteringPlayersToDb-to-NormalizingPlayerMetrics" style="stroke:#181818;stroke-width:1;"/><polygon fill="#181818" points="385,504.9569,389,495.9569,385,499.9569,381,495.9569,385,504.9569" style="stroke:#181818;stroke-width:1;"/><text fill="#000000" font-family="sans-serif" font-size="13" lengthAdjust="spacing" textLength="118.4409" x="386" y="471.3638">players registered</text></g><!--link NormalizingPlayerMetrics to BuildingAssociationGraph--><g class="link" data-entity-1="ent0011" data-entity-2="ent0013" data-link-type="dependency" data-source-line="11" id="lnk14"><path d="M385,555.6969 C385,577.7169 385,603.9569 385,625.9569" fill="none" id="NormalizingPlayerMetrics-to-BuildingAssociationGraph" style="stroke:#181818;stroke-width:1;"/><polygon fill="#181818" points="385,631.9569,389,622.9569,385,626.9569,381,622.9569,385,631.9569" style="stroke:#181818;stroke-width:1;"/><text fill="#000000" font-family="sans-serif" font-size="13" lengthAdjust="spacing" textLength="125.2329" x="386" y="598.3638">metrics normalized</text></g><!--link BuildingAssociationGraph to Completed--><g class="link" data-entity-1="ent0013" data-entity-2="ent0015" data-link-type="dependency" data-source-line="13" id="lnk16"><path d="M386.87,682.7069 C388.63,707.8969 391,748.3169 391,783.2969 C391,783.2969 391,783.2969 391,1039.2969 C391,1072.3369 393.78,1088.4469 369,1110.2969 C331.64,1143.2469 194.6273,1156.3963 118.4373,1161.3663" fill="none" id="BuildingAssociationGraph-to-Completed" style="stroke:#181818;stroke-width:1;"/><polygon fill="#181818" points="112.45,1161.7569,121.6913,1165.1626,117.4394,1161.4314,121.1705,1157.1795,112.45,1161.7569" style="stroke:#181818;stroke-width:1;"/><text fill="#000000" font-family="sans-serif" font-size="13" lengthAdjust="spacing" textLength="101.1499" x="392" y="915.8638">graph-only flow</text></g><!--link BuildingAssociationGraph to PreparingClusterProfiles--><g class="link" data-entity-1="ent0013" data-entity-2="ent0017" data-link-type="dependency" data-source-line="14" id="lnk18"><path d="M285.11,667.6869 C257.34,675.4369 230.13,688.9569 213,712.2969 C203.3,725.5169 202.6466,738.2465 205.2466,753.1165" fill="none" id="BuildingAssociationGraph-to-PreparingClusterProfiles" style="stroke:#181818;stroke-width:1;"/><polygon fill="#181818" points="206.28,759.0269,208.6701,749.4724,205.4188,754.1016,200.7897,750.8503,206.28,759.0269" style="stroke:#181818;stroke-width:1;"/><text fill="#000000" font-family="sans-serif" font-size="13" lengthAdjust="spacing" textLength="150.2617" x="214" y="725.3638">country prediction flow</text></g><!--link PreparingClusterProfiles to InferringClusterCountries--><g class="link" data-entity-1="ent0017" data-entity-2="ent0019" data-link-type="dependency" data-source-line="16" id="lnk20"><path d="M211.83,809.6969 C210.77,831.7169 209.506,857.9637 208.456,879.9637" fill="none" id="PreparingClusterProfiles-to-InferringClusterCountries" style="stroke:#181818;stroke-width:1;"/><polygon fill="#181818" points="208.17,885.9569,212.5945,877.1578,208.4084,880.9626,204.6036,876.7764,208.17,885.9569" style="stroke:#181818;stroke-width:1;"/><text fill="#000000" font-family="sans-serif" font-size="13" lengthAdjust="spacing" textLength="111.6616" x="212" y="852.3638">profiles prepared</text></g><!--link InferringClusterCountries to SavingCountryAssignmentsFromAPI--><g class="link" data-entity-1="ent0019" data-entity-2="ent0021" data-link-type="dependency" data-source-line="17" id="lnk22"><path d="M206.22,936.6969 C205.51,958.7169 204.6708,984.9599 203.9708,1006.9599" fill="none" id="InferringClusterCountries-to-SavingCountryAssignmentsFromAPI" style="stroke:#181818;stroke-width:1;"/><polygon fill="#181818" points="203.78,1012.9569,208.0642,1004.0886,203.939,1007.9594,200.0682,1003.8342,203.78,1012.9569" style="stroke:#181818;stroke-width:1;"/><text fill="#000000" font-family="sans-serif" font-size="13" lengthAdjust="spacing" textLength="116.5874" x="207" y="979.3638">inference finished</text></g><!--link SavingCountryAssignmentsFromAPI to Completed--><g class="link" data-entity-1="ent0021" data-entity-2="ent0015" data-link-type="dependency" data-source-line="18" id="lnk23"><path d="M95.15,1063.6369 C81.72,1071.0469 69.68,1080.7069 61,1093.2969 C51.75,1106.7069 51.5595,1119.2951 54.7795,1134.0351" fill="none" id="SavingCountryAssignmentsFromAPI-to-Completed" style="stroke:#181818;stroke-width:1;"/><polygon fill="#181818" points="56.06,1139.8969,58.0471,1130.2505,54.9929,1135.0121,50.2314,1131.9579,56.06,1139.8969" style="stroke:#181818;stroke-width:1;"/><text fill="#000000" font-family="sans-serif" font-size="13" lengthAdjust="spacing" textLength="117.6284" x="62" y="1106.3638">region data saved</text></g><!--link SavingCountryAssignmentsFromAPI to FailedAPI--><g class="link" data-entity-1="ent0021" data-entity-2="ent0009" data-link-type="dependency" data-source-line="19" id="lnk24"><path d="M259.02,1063.6769 C292.67,1077.9769 336.47,1095.9769 376,1110.2969 C419.32,1125.9969 463.9497,1139.8739 498.7597,1150.2439" fill="none" id="SavingCountryAssignmentsFromAPI-to-FailedAPI" style="stroke:#181818;stroke-width:1;"/><polygon fill="#181818" points="504.51,1151.9569,497.0266,1145.5538,499.7181,1150.5294,494.7426,1153.2209,504.51,1151.9569" style="stroke:#181818;stroke-width:1;"/><text fill="#000000" font-family="sans-serif" font-size="13" lengthAdjust="spacing" textLength="143.2349" x="377" y="1106.3638">OpenRouter API failed</text></g><!--link FailedAPI to Idle--><g class="link" data-entity-1="ent0009" data-entity-2="ent0003" data-link-type="dependency" data-source-line="21" id="lnk25"><path d="M589.46,1147.3769 C630.34,1127.9669 686,1091.8769 686,1039.2969 C686,275.2969 686,275.2969 686,275.2969 C686,174.3769 528.1697,155.2878 464.1697,151.5378" fill="none" id="FailedAPI-to-Idle" style="stroke:#181818;stroke-width:1;"/><polygon fill="#181818" points="458.18,151.1869,466.9306,155.7065,463.1714,151.4793,467.3986,147.7202,458.18,151.1869" style="stroke:#181818;stroke-width:1;"/><text fill="#000000" font-family="sans-serif" font-size="13" lengthAdjust="spacing" textLength="33.2109" x="687" y="661.8638">reset</text></g><!--link Completed to Idle--><g class="link" data-entity-1="ent0015" data-entity-2="ent0003" data-link-type="dependency" data-source-line="22" id="lnk26"><path d="M45.01,1139.9869 C28.09,1115.8569 6,1077.0969 6,1039.2969 C6,275.2969 6,275.2969 6,275.2969 C6,191.1069 309.6598,160.1435 401.5898,152.6635" fill="none" id="Completed-to-Idle" style="stroke:#181818;stroke-width:1;"/><polygon fill="#181818" points="407.57,152.1769,398.2753,148.9199,402.5865,152.5824,398.924,156.8936,407.57,152.1769" style="stroke:#181818;stroke-width:1;"/><text fill="#000000" font-family="sans-serif" font-size="13" lengthAdjust="spacing" textLength="148.313" x="7" y="661.8638">final analysis prepared</text></g><?plantuml-src ZLDDJoCn3BtdL_YCLEsT0nAqOiMXC2hSLdim6K_7KYQ94hVLyElNdg4KhNOMBf6Izs4_9n6MGB2ZIbXy3mrd2Xm9dWM5O8k-rvrplwv-msfr0mzjq9sjqtQTGY0l7FTR5DzlK12k8PzDgc0HQk47K3n28Mn7v_wbCQyTxRaA5GMQW2EL-f8shset60rQu_bPI-sYoproeFQsUL0XbP8Ad5Xws74IFNHkeOf97rCPCF3R1xGbAUoh9Pgf6c5MQmEBRBEwEt1e5RcjDNb6uHH_5iozfNcdnNUzMhb5-ZpZ8GUoCLx3tavNAOOHkf1E_nSsXJ9Qq7KuMDDDIPqEn_BuT8XIHiYQXBt9PZ-tg9akFtOwqWkudbnuSindOfuSDDKosxoUyMZGt8Usp_iuK9HwNz8mtnwRdg8dw3XoxTNoAz7VuxBhqcZJqwbu_AR3voVqb2dkqa7R1ple9iYv2-NyAQPgbSHTwd-2D046G5t6ofSP_G40?></g></svg>